<svg width="32" height="31" viewBox="0 0 32 31" fill="none" xmlns="http://www.w3.org/2000/svg">
<circle cx="15.7386" cy="15.4154" r="15.4154" fill="#265FAC"/>
<path fillRule="evenodd" clipRule="evenodd" d="M20.578 12.1394C20.578 12.1394 22.9802 12.4438 23.2024 10.0195H25.5599V10.2038C25.5599 12.5591 23.6505 14.4685 21.2952 14.4685H20.583V17.5047C20.5753 20.0536 18.5109 22.118 15.962 22.1257H15.2101C12.6584 22.1255 10.59 20.0569 10.59 17.5052V14.4856L9.90665 14.4671C7.57525 14.403 5.7186 12.4945 5.71875 10.1622V10.0647H8.08706C8.08706 10.0647 8.24332 12.2776 10.6121 12.1331V10.0195H12.9705V12.1394H18.1695V10.0195H20.578V12.1394ZM16.9272 19.5339C17.726 19.052 18.2046 18.1784 18.1808 17.2458V14.4187H12.9925V17.2458V17.3289C12.9985 18.2618 13.5049 19.1196 14.3187 19.5756C15.1325 20.0317 16.1284 20.0157 16.9272 19.5339Z" fill="white"/>
</svg>
