<svg width="31" height="31" viewBox="0 0 31 31" fill="none" xmlns="http://www.w3.org/2000/svg">
<path d="M30.3661 19.1444C28.3073 27.4028 19.9429 32.4286 11.6836 30.3693C3.42778 28.3104 -1.59807 19.9456 0.461668 11.6879C2.5196 3.42868 10.8839 -1.59755 19.1407 0.461281C27.3994 2.52012 32.4249 10.8859 30.3659 19.1446L30.366 19.1444H30.3661Z" fill="#F3BA2F"/>
<path fill-rule="evenodd" clip-rule="evenodd" d="M15.4158 9.78335L11.4241 13.7751L11.4242 13.7749L9.10166 11.4523L15.4158 5.13818L21.732 11.4542L19.4094 13.7768L15.4158 9.78335ZM7.46134 13.0924L5.13867 15.4154L7.46117 17.7376L9.78384 15.4149L7.46134 13.0924ZM11.4236 17.0554L15.4153 21.0469L19.4089 17.0535L21.7327 19.3748L21.7315 19.3761L15.4153 25.692L9.10118 19.3779L9.0979 19.3746L11.4236 17.0554ZM23.3697 13.0936L21.0471 15.4163L23.3697 17.7388L25.6922 15.4161L23.3697 13.0936Z" fill="white"/>
<path d="M17.7703 15.4144H17.7713L15.4147 13.0576L13.6728 14.799V14.799L13.4727 14.9992L13.0599 15.412L13.0566 15.4152L13.0599 15.4186L15.4147 17.7737L17.7714 15.4169L17.7726 15.4156L17.7705 15.4144" fill="white"/>
</svg>
