<svg width="163" height="163" viewBox="0 0 163 163" fill="none" xmlns="http://www.w3.org/2000/svg">
<g clip-path="url(#clip0_95_1135)">
<path d="M95.9024 109.558L104.862 108.105C105.482 108.004 106.118 108.105 106.674 108.396L159.533 136.083C160.625 136.656 161.237 137.856 161.059 139.077C160.882 140.298 159.953 141.274 158.742 141.511L48.9577 162.946C48.1397 163.106 47.2939 162.908 46.6314 162.401L3.61099 129.501C2.68808 128.796 2.2734 127.609 2.55659 126.482C2.83979 125.356 3.7665 124.505 4.91319 124.32L51.772 116.739L95.9024 109.558Z" fill="#EEB91D"/>
<path d="M93.3448 121.768L102.88 120.21C103.502 120.107 104.14 120.209 104.7 120.501L124.795 131.034C125.887 131.606 126.499 132.807 126.321 134.029C126.142 135.25 125.212 136.225 124.001 136.461L51.8617 150.532C51.045 150.692 50.1979 150.495 49.5354 149.989L32.0924 136.65C31.172 135.945 30.7586 134.759 31.0405 133.634C31.3224 132.509 32.2479 131.659 33.392 131.472L57.3183 127.582L93.3448 121.768Z" fill="#FFE878"/>
<path d="M6.9707 78.8877C7.37527 78.5324 11.5992 80.7158 12.0354 80.908C16.325 82.7943 20.4781 84.9789 24.4606 87.4493C34.7732 93.7605 43.4208 102.454 49.6776 112.799C54.7688 121.277 58.6236 137.031 70.9299 137.031C76.8252 137.031 83.5258 137.222 88.0064 132.725C93.4832 127.222 93.5818 119.19 95.2747 112.085C103.663 78.5754 119.683 47.4593 142.08 21.1613C143.456 19.5165 144.853 17.8881 146.269 16.2774C149.145 13.0447 152.197 9.97254 155.409 7.07357C155.846 6.67786 156.602 5.86746 157.503 4.94202C158.329 4.10002 158.564 2.84207 158.097 1.7586C157.632 0.675121 156.557 -0.0202257 155.378 2.55066e-06C136.868 0.587886 92.8258 10.2772 68.0221 84.7021C68.0221 84.7021 30.2281 58.5368 6.9707 78.8877Z" fill="url(#paint0_linear_95_1135)"/>
<path d="M100.003 52.7224C99.5101 52.7224 99.0258 52.5973 98.596 52.3558C97.1927 51.577 96.6869 49.8083 97.4645 48.4049C112.265 21.7605 129.947 12.6995 130.682 12.3266C132.118 11.6047 133.866 12.1825 134.59 13.6174C135.312 15.0536 134.734 16.8021 133.299 17.5252C133.078 17.6378 116.397 26.3132 102.556 51.2255C102.041 52.1522 101.063 52.7262 100.003 52.7224Z" fill="white" fill-opacity="0.54"/>
<path d="M91.2809 67.2577C90.2732 67.2577 89.339 66.7356 88.8092 65.8797C88.2795 65.0225 88.2315 63.9529 88.6815 63.0515L91.5893 57.2371C92.0533 56.3079 92.9788 55.6973 94.0155 55.6353C95.0534 55.5734 96.0446 56.069 96.6161 56.9363C97.1888 57.8035 97.2545 58.9098 96.7905 59.839L93.8827 65.6534C93.3897 66.6382 92.382 67.259 91.2809 67.2577Z" fill="white" fill-opacity="0.54"/>
</g>
<defs>
<linearGradient id="paint0_linear_95_1135" x1="15.2055" y1="-0.000426922" x2="167.428" y2="1.15664" gradientUnits="userSpaceOnUse">
<stop stop-color="#EEB91D"/>
<stop offset="1" stop-color="#FFE878"/>
</linearGradient>
<clipPath id="clip0_95_1135">
<rect width="163" height="163" fill="white"/>
</clipPath>
</defs>
</svg>
