<svg width="8" height="13" viewBox="0 0 8 13" fill="none" xmlns="http://www.w3.org/2000/svg">
<path d="M5.90383 12.6854L0.452355 7.25008C0.387649 7.18538 0.341924 7.11528 0.315179 7.03979C0.288002 6.9643 0.274414 6.88342 0.274414 6.79714C0.274414 6.71087 0.288002 6.62999 0.315179 6.5545C0.341924 6.47901 0.387649 6.40891 0.452355 6.3442L5.90383 0.89273C6.05481 0.74175 6.24353 0.66626 6.47 0.66626C6.69647 0.66626 6.89059 0.747142 7.05236 0.908907C7.21412 1.07067 7.295 1.2594 7.295 1.47508C7.295 1.69077 7.21412 1.8795 7.05236 2.04126L2.29647 6.79714L7.05236 11.553C7.20334 11.704 7.27883 11.8899 7.27883 12.1108C7.27883 12.3321 7.19794 12.5236 7.03618 12.6854C6.87441 12.8471 6.68569 12.928 6.47 12.928C6.25432 12.928 6.06559 12.8471 5.90383 12.6854Z" fill="#EEB91D"/>
</svg>
