<svg width="44" height="44" viewBox="0 0 44 44" fill="none" xmlns="http://www.w3.org/2000/svg">
<g filter="url(#filter0_b_159_12256)">
<rect width="44" height="44" rx="8" fill="white" fill-opacity="0.08"/>
</g>
<path d="M18.7701 24.4301L20.3801 25.1501C21.4101 25.6101 22.5901 25.6101 23.6301 25.1501L25.2401 24.4301C26.6801 23.7901 28.0101 25.5301 27.0101 26.7501L23.5501 30.9801C22.7001 32.0201 21.3101 32.0201 20.4501 30.9801L17.0001 26.7501C15.9901 25.5301 17.3201 23.7901 18.7701 24.4301Z" fill="white"/>
<path d="M18.5703 21.6699C18.2703 21.8899 18.3103 22.3499 18.6503 22.5199L21.0003 23.6899C21.5503 23.9699 22.4403 23.9699 22.9803 23.6899L25.3303 22.5199C25.6603 22.3499 25.7003 21.8999 25.4103 21.6699L22.3003 19.3299C22.1203 19.1999 21.8803 19.1999 21.7003 19.3299L18.5703 21.6699Z" fill="white"/>
<path d="M27.8803 18.2402L23.7103 13.0402C23.6303 12.9402 23.5403 12.8502 23.4503 12.7602C23.1903 12.5102 22.8203 12.7402 22.8203 13.1002V17.4002C22.8203 17.5602 22.8903 17.7102 23.0203 17.8002L27.1703 20.9202L27.3503 21.0502C27.5303 21.1802 27.7803 21.1802 27.9303 21.0202C28.6303 20.2602 28.6203 19.1602 27.8803 18.2402Z" fill="white"/>
<path d="M16.1108 18.3298L20.2608 13.0498C20.3408 12.9498 20.4208 12.8598 20.5108 12.7698C20.7708 12.5198 21.1408 12.7398 21.1408 13.1098V17.4798C21.1408 17.6398 21.0708 17.7798 20.9408 17.8798L16.8108 21.0498L16.6408 21.1798C16.4608 21.3098 16.2108 21.3098 16.0508 21.1398C15.3708 20.3698 15.3808 19.2698 16.1108 18.3298Z" fill="white"/>
<defs>
<filter id="filter0_b_159_12256" x="-4" y="-4" width="52" height="52" filterUnits="userSpaceOnUse" color-interpolation-filters="sRGB">
<feFlood flood-opacity="0" result="BackgroundImageFix"/>
<feGaussianBlur in="BackgroundImageFix" stdDeviation="2"/>
<feComposite in2="SourceAlpha" operator="in" result="effect1_backgroundBlur_159_12256"/>
<feBlend mode="normal" in="SourceGraphic" in2="effect1_backgroundBlur_159_12256" result="shape"/>
</filter>
</defs>
</svg>
