<svg width="28" height="28" viewBox="0 0 28 28" fill="none" xmlns="http://www.w3.org/2000/svg">
<g clip-path="url(#clip0_94_556)">
<path d="M14 28C21.732 28 28 21.732 28 14C28 6.26801 21.732 0 14 0C6.26801 0 0 6.26801 0 14C0 21.732 6.26801 28 14 28Z" fill="#FFAC00"/>
<path d="M26.4624 16.952C28.0896 10.0682 23.8284 3.16874 16.9446 1.54154C10.0609 -0.0856564 3.16139 4.17562 1.53419 11.0594C-0.0930058 17.9431 4.16827 24.8426 11.052 26.4698C17.9358 28.097 24.8353 23.8357 26.4624 16.952Z" fill="#FCEB69"/>
<path d="M25.2172 13.8556C25.2501 16.2682 24.504 18.627 23.0896 20.5817C21.6752 22.5365 19.668 23.9829 17.3662 24.7061C15.0644 25.4293 12.5906 25.3908 10.3125 24.5962C8.03426 23.8017 6.07311 22.2935 4.72031 20.2956C3.47727 18.4834 2.80251 16.3418 2.78218 14.1444C2.74389 11.1693 3.88901 8.30087 5.96562 6.1701C8.04223 4.03934 10.8802 2.82078 13.8553 2.78249C16.8304 2.74419 19.6988 3.88931 21.8296 5.96593C23.9603 8.04254 25.1789 10.8805 25.2172 13.8556Z" fill="#FFAC00"/>
<path d="M19.5868 14.1706L19.5825 14.175L14.1093 17.4256L14.0568 17.4563L14 17.4256L8.41309 14.2231L13.7681 5.45563L14 5.07501L14.1093 4.89563L14.1268 4.935L19.5868 14.1706Z" fill="#FCEB69"/>
<path d="M19.5869 14.1706L14.1225 11.5806L14.1094 4.89563L14.1269 4.935L19.5869 14.1706Z" fill="#FCEB69"/>
<path d="M19.5823 14.175L14.0566 17.4563L14.1223 11.5806L19.5823 14.175Z" fill="#FFD21A"/>
<path d="M8.41309 14.21L14.0568 17.4563L14.1225 11.5806L8.41309 14.21Z" fill="#FCEB69"/>
<path d="M8.41309 14.2188L14.1093 4.89563L14.1225 11.5806L8.41309 14.2188ZM14 18.5894L19.6393 15.2338L14 23.1044V18.5894Z" fill="#FFD21A"/>
<path d="M13.9997 18.5894L8.36035 15.2338L13.9997 23.1044V18.5894Z" fill="#FCEB69"/>
</g>
<defs>
<clipPath id="clip0_94_556">
<rect width="28" height="28" fill="white"/>
</clipPath>
</defs>
</svg>
