<svg width="1280" height="422" viewBox="0 0 1280 422" fill="none" xmlns="http://www.w3.org/2000/svg">
<path d="M41.4762 270.586C11.8878 270.586 -7.37766 273.923 -34.6084 283.764V421.94H1315.19V59.7382C1304.51 94.9764 1282.78 126.826 1241.92 126.826C1202.25 126.826 1195.43 113.648 1165.84 119.638C1128.83 127.13 1136.68 192.716 1092.57 192.716C1053.12 192.716 1051.53 148.916 1016.49 130.42C975.626 108.856 988.682 54.0835 940.402 41.7682C898.133 30.9862 906.587 13.0163 867.135 13.0163C816.412 13.0163 823.457 95.6781 791.051 136.41C755.202 181.468 769.916 261.002 717.784 261.002C678.752 261.002 680.731 205.894 641.699 205.894C602.667 205.894 604.637 260.252 565.615 261.002C532.027 261.647 527.572 222.666 492.348 222.666C457.81 222.666 449.029 251.715 416.263 261.002C382.448 270.586 382.304 319.075 342.997 319.704C302.882 320.346 307.034 261.002 266.912 261.002C237.324 261.002 221.816 280.445 190.828 280.17C160.893 279.904 147.497 261.002 117.561 261.002C86.5634 261.002 71.0647 270.586 41.4762 270.586Z" fill="url(#paint0_linear_71_561)"/>
<path d="M-34.6084 283.266C-7.37766 273.424 11.8878 270.088 41.4762 270.088C71.0647 270.088 86.5634 260.504 117.561 260.504C147.497 260.504 160.893 279.406 190.827 279.672C221.816 279.947 237.324 260.504 266.912 260.504C307.034 260.504 302.882 319.847 342.997 319.206C382.304 318.577 382.448 270.088 416.263 260.504C449.029 251.217 457.81 222.168 492.348 222.168C527.572 222.168 532.027 261.149 565.615 260.504C604.637 259.754 602.667 205.396 641.699 205.396C680.731 205.396 678.752 260.504 717.784 260.504C769.916 260.504 755.202 180.97 791.051 135.912C823.457 95.1799 816.412 12.518 867.135 12.518C906.586 12.518 898.133 30.488 940.402 41.27C988.682 53.5853 975.626 108.358 1016.49 129.922C1051.53 148.418 1053.12 192.218 1092.57 192.218C1136.68 192.218 1128.83 126.632 1165.84 119.14C1195.43 113.15 1202.25 126.328 1241.92 126.328C1282.78 126.328 1304.51 94.4782 1315.19 59.24" stroke="#EFC431" stroke-width="2.11002" stroke-linecap="round"/>
<rect x="-34.0809" y="10.9592" width="1348.74" height="3.11768" fill="#D9B336" stroke="url(#paint1_linear_71_561)" stroke-width="1.05501"/>
<ellipse cx="857.928" cy="12.5181" rx="13.1902" ry="12.5181" fill="white" fill-opacity="0.55"/>
<ellipse cx="857.928" cy="12.5181" rx="8.79347" ry="8.34538" fill="#DCB537"/>
<defs>
<linearGradient id="paint0_linear_71_561" x1="640.29" y1="-27.6675" x2="640.29" y2="454.066" gradientUnits="userSpaceOnUse">
<stop stop-color="#F3C636"/>
<stop offset="1" stop-color="#E4CE66" stop-opacity="0.1"/>
</linearGradient>
<linearGradient id="paint1_linear_71_561" x1="-32.8696" y1="14.5907" x2="-32.8078" y2="3.14789" gradientUnits="userSpaceOnUse">
<stop stop-color="#0E3753"/>
<stop offset="1" stop-color="#0040C1"/>
</linearGradient>
</defs>
</svg>
