<svg width="90" height="33" viewBox="0 0 90 33" fill="none" xmlns="http://www.w3.org/2000/svg">
<rect x="0.5" y="0.5" width="89" height="32" rx="16" stroke="url(#paint0_linear_133_388)"/>
<path d="M16.5 11.0833V13.25" stroke="url(#paint1_linear_133_388)" stroke-width="1.08333" stroke-linecap="round" stroke-linejoin="round"/>
<path d="M16.5 19.75V21.9167" stroke="url(#paint2_linear_133_388)" stroke-width="1.08333" stroke-linecap="round" stroke-linejoin="round"/>
<path d="M12.6699 12.6704L14.2028 14.2033" stroke="url(#paint3_linear_133_388)" stroke-width="1.08333" stroke-linecap="round" stroke-linejoin="round"/>
<path d="M18.7969 18.7967L20.3298 20.3296" stroke="url(#paint4_linear_133_388)" stroke-width="1.08333" stroke-linecap="round" stroke-linejoin="round"/>
<path d="M11.084 16.5H13.2507" stroke="url(#paint5_linear_133_388)" stroke-width="1.08333" stroke-linecap="round" stroke-linejoin="round"/>
<path d="M19.75 16.5H21.9167" stroke="url(#paint6_linear_133_388)" stroke-width="1.08333" stroke-linecap="round" stroke-linejoin="round"/>
<path d="M12.6699 20.3298L14.2028 18.7969" stroke="url(#paint7_linear_133_388)" stroke-width="1.08333" stroke-linecap="round" stroke-linejoin="round"/>
<path d="M18.7969 14.2033L20.3298 12.6704" stroke="url(#paint8_linear_133_388)" stroke-width="1.08333" stroke-linecap="round" stroke-linejoin="round"/>
<path d="M30.06 20V12.7H31.66L35.37 19.12H35.69L35.49 19.3V12.7H36.43V20H34.81L31.1 13.58H30.78L30.98 13.4V20H30.06ZM40.6763 20.18C40.2097 20.18 39.8063 20.1 39.4663 19.94C39.1263 19.78 38.8497 19.57 38.6363 19.31C38.423 19.0433 38.263 18.7467 38.1563 18.42C38.0563 18.0933 38.0063 17.76 38.0063 17.42V17.24C38.0063 16.8933 38.0563 16.5567 38.1563 16.23C38.263 15.9033 38.423 15.61 38.6363 15.35C38.8497 15.0833 39.1197 14.8733 39.4463 14.72C39.7797 14.56 40.1697 14.48 40.6163 14.48C41.1963 14.48 41.673 14.6067 42.0463 14.86C42.4263 15.1067 42.7063 15.4267 42.8863 15.82C43.073 16.2133 43.1663 16.6333 43.1663 17.08V17.51H38.4263V16.79H42.4663L42.2463 17.18C42.2463 16.8 42.1863 16.4733 42.0663 16.2C41.9463 15.92 41.7663 15.7033 41.5263 15.55C41.2863 15.3967 40.983 15.32 40.6163 15.32C40.2363 15.32 39.9197 15.4067 39.6663 15.58C39.4197 15.7533 39.233 15.99 39.1063 16.29C38.9863 16.59 38.9263 16.9367 38.9263 17.33C38.9263 17.71 38.9863 18.0533 39.1063 18.36C39.233 18.66 39.4263 18.9 39.6863 19.08C39.9463 19.2533 40.2763 19.34 40.6763 19.34C41.0963 19.34 41.4363 19.2467 41.6963 19.06C41.963 18.8733 42.123 18.6567 42.1763 18.41H43.0763C43.003 18.7767 42.8563 19.0933 42.6363 19.36C42.4163 19.6267 42.1397 19.83 41.8063 19.97C41.473 20.11 41.0963 20.18 40.6763 20.18ZM43.8698 20L45.7798 17.19L45.7498 17.39L43.9598 14.66H45.0198L46.3098 16.67H46.4498L47.6698 14.66H48.6598L46.9698 17.32L46.9998 17.14L48.9998 20H47.9398L46.4398 17.83H46.2998L44.8598 20H43.8698ZM52.1465 20.06C51.7465 20.06 51.3998 20.0033 51.1065 19.89C50.8198 19.7767 50.5965 19.5833 50.4365 19.31C50.2832 19.03 50.2065 18.6533 50.2065 18.18V13.04H51.1265V18.3C51.1265 18.5867 51.2032 18.81 51.3565 18.97C51.5165 19.1233 51.7398 19.2 52.0265 19.2H52.9665V20.06H52.1465ZM49.2865 15.38V14.66H52.9665V15.38H49.2865ZM59.1097 20.18C58.503 20.18 57.9864 20.08 57.5597 19.88C57.133 19.68 56.8064 19.4033 56.5797 19.05C56.353 18.6967 56.2397 18.2967 56.2397 17.85H57.2197C57.2197 18.07 57.2764 18.29 57.3897 18.51C57.5097 18.73 57.7064 18.9133 57.9797 19.06C58.2597 19.2067 58.6364 19.28 59.1097 19.28C59.5497 19.28 59.9097 19.2167 60.1897 19.09C60.4697 18.9567 60.6764 18.7867 60.8097 18.58C60.943 18.3667 61.0097 18.1367 61.0097 17.89C61.0097 17.59 60.8797 17.3433 60.6197 17.15C60.3597 16.95 59.9797 16.8267 59.4797 16.78L58.6697 16.71C58.023 16.6567 57.5064 16.4567 57.1197 16.11C56.733 15.7633 56.5397 15.3067 56.5397 14.74C56.5397 14.2933 56.6464 13.9033 56.8597 13.57C57.0797 13.2367 57.383 12.9767 57.7697 12.79C58.1564 12.5967 58.6064 12.5 59.1197 12.5C59.6264 12.5 60.073 12.5933 60.4597 12.78C60.8464 12.9667 61.1464 13.23 61.3597 13.57C61.5797 13.9033 61.6897 14.3033 61.6897 14.77H60.7097C60.7097 14.5367 60.653 14.3167 60.5397 14.11C60.433 13.9033 60.263 13.7333 60.0297 13.6C59.7964 13.4667 59.493 13.4 59.1197 13.4C58.7597 13.4 58.4597 13.4633 58.2197 13.59C57.9864 13.7167 57.8097 13.8833 57.6897 14.09C57.5764 14.29 57.5197 14.5067 57.5197 14.74C57.5197 15.0067 57.623 15.2433 57.8297 15.45C58.0364 15.6567 58.343 15.7767 58.7497 15.81L59.5597 15.88C60.0597 15.92 60.4897 16.0267 60.8497 16.2C61.2164 16.3667 61.4964 16.5933 61.6897 16.88C61.8897 17.16 61.9897 17.4967 61.9897 17.89C61.9897 18.3367 61.8697 18.7333 61.6297 19.08C61.3897 19.4267 61.053 19.6967 60.6197 19.89C60.1864 20.0833 59.683 20.18 59.1097 20.18ZM65.5742 20.06C65.1742 20.06 64.8276 20.0033 64.5342 19.89C64.2476 19.7767 64.0242 19.5833 63.8642 19.31C63.7109 19.03 63.6342 18.6533 63.6342 18.18V13.04H64.5542V18.3C64.5542 18.5867 64.6309 18.81 64.7842 18.97C64.9442 19.1233 65.1676 19.2 65.4542 19.2H66.3942V20.06H65.5742ZM62.7142 15.38V14.66H66.3942V15.38H62.7142ZM69.983 20.18C69.5163 20.18 69.113 20.1 68.773 19.94C68.433 19.78 68.1563 19.57 67.943 19.31C67.7296 19.0433 67.5696 18.7467 67.463 18.42C67.363 18.0933 67.313 17.76 67.313 17.42V17.24C67.313 16.8933 67.363 16.5567 67.463 16.23C67.5696 15.9033 67.7296 15.61 67.943 15.35C68.1563 15.0833 68.4263 14.8733 68.753 14.72C69.0863 14.56 69.4763 14.48 69.923 14.48C70.503 14.48 70.9796 14.6067 71.353 14.86C71.733 15.1067 72.013 15.4267 72.193 15.82C72.3796 16.2133 72.473 16.6333 72.473 17.08V17.51H67.733V16.79H71.773L71.553 17.18C71.553 16.8 71.493 16.4733 71.373 16.2C71.253 15.92 71.073 15.7033 70.833 15.55C70.593 15.3967 70.2896 15.32 69.923 15.32C69.543 15.32 69.2263 15.4067 68.973 15.58C68.7263 15.7533 68.5396 15.99 68.413 16.29C68.293 16.59 68.233 16.9367 68.233 17.33C68.233 17.71 68.293 18.0533 68.413 18.36C68.5396 18.66 68.733 18.9 68.993 19.08C69.253 19.2533 69.583 19.34 69.983 19.34C70.403 19.34 70.743 19.2467 71.003 19.06C71.2696 18.8733 71.4296 18.6567 71.483 18.41H72.383C72.3096 18.7767 72.163 19.0933 71.943 19.36C71.723 19.6267 71.4463 19.83 71.113 19.97C70.7796 20.11 70.403 20.18 69.983 20.18ZM73.836 22V14.66H74.596V16.97L74.416 16.95C74.4493 16.3767 74.5693 15.91 74.776 15.55C74.9893 15.1833 75.266 14.9133 75.606 14.74C75.946 14.5667 76.316 14.48 76.716 14.48C77.1027 14.48 77.4527 14.5533 77.766 14.7C78.086 14.8467 78.3593 15.0467 78.586 15.3C78.8127 15.5533 78.986 15.8467 79.106 16.18C79.226 16.5133 79.286 16.8667 79.286 17.24V17.42C79.286 17.7933 79.2227 18.1467 79.096 18.48C78.9693 18.8133 78.7893 19.1067 78.556 19.36C78.3293 19.6133 78.056 19.8133 77.736 19.96C77.4227 20.1067 77.076 20.18 76.696 20.18C76.316 20.18 75.9527 20.0967 75.606 19.93C75.2593 19.7633 74.9727 19.4933 74.746 19.12C74.5193 18.7467 74.3893 18.2567 74.356 17.65L74.796 18.45V22H73.836ZM76.546 19.34C76.906 19.34 77.2193 19.2567 77.486 19.09C77.7527 18.9167 77.9593 18.68 78.106 18.38C78.2527 18.0733 78.326 17.7233 78.326 17.33C78.326 16.93 78.2527 16.58 78.106 16.28C77.9593 15.98 77.7527 15.7467 77.486 15.58C77.2193 15.4067 76.906 15.32 76.546 15.32C76.226 15.32 75.9293 15.3933 75.656 15.54C75.3827 15.68 75.1627 15.8867 74.996 16.16C74.836 16.4267 74.756 16.75 74.756 17.13V17.59C74.756 17.9567 74.8393 18.27 75.006 18.53C75.1727 18.79 75.3927 18.99 75.666 19.13C75.9393 19.27 76.2327 19.34 76.546 19.34Z" fill="url(#paint9_linear_133_388)"/>
<defs>
<linearGradient id="paint0_linear_133_388" x1="4.89637" y1="7.79464e-08" x2="95.3804" y2="1.69819" gradientUnits="userSpaceOnUse">
<stop stop-color="#EEB91D"/>
<stop offset="1" stop-color="#FFE878"/>
</linearGradient>
<linearGradient id="paint1_linear_133_388" x1="16.5544" y1="11.0833" x2="17.5601" y2="11.0865" gradientUnits="userSpaceOnUse">
<stop stop-color="#EEB91D"/>
<stop offset="1" stop-color="#FFE878"/>
</linearGradient>
<linearGradient id="paint2_linear_133_388" x1="16.5544" y1="19.75" x2="17.5601" y2="19.7532" gradientUnits="userSpaceOnUse">
<stop stop-color="#EEB91D"/>
<stop offset="1" stop-color="#FFE878"/>
</linearGradient>
<linearGradient id="paint3_linear_133_388" x1="12.7533" y1="12.6704" x2="14.2949" y2="12.681" gradientUnits="userSpaceOnUse">
<stop stop-color="#EEB91D"/>
<stop offset="1" stop-color="#FFE878"/>
</linearGradient>
<linearGradient id="paint4_linear_133_388" x1="18.8803" y1="18.7967" x2="20.4219" y2="18.8073" gradientUnits="userSpaceOnUse">
<stop stop-color="#EEB91D"/>
<stop offset="1" stop-color="#FFE878"/>
</linearGradient>
<linearGradient id="paint5_linear_133_388" x1="11.2019" y1="16.5" x2="13.3805" y2="16.5325" gradientUnits="userSpaceOnUse">
<stop stop-color="#EEB91D"/>
<stop offset="1" stop-color="#FFE878"/>
</linearGradient>
<linearGradient id="paint6_linear_133_388" x1="19.8679" y1="16.5" x2="22.0465" y2="16.5325" gradientUnits="userSpaceOnUse">
<stop stop-color="#EEB91D"/>
<stop offset="1" stop-color="#FFE878"/>
</linearGradient>
<linearGradient id="paint7_linear_133_388" x1="12.7533" y1="18.7969" x2="14.2949" y2="18.8075" gradientUnits="userSpaceOnUse">
<stop stop-color="#EEB91D"/>
<stop offset="1" stop-color="#FFE878"/>
</linearGradient>
<linearGradient id="paint8_linear_133_388" x1="18.8803" y1="12.6704" x2="20.4219" y2="12.681" gradientUnits="userSpaceOnUse">
<stop stop-color="#EEB91D"/>
<stop offset="1" stop-color="#FFE878"/>
</linearGradient>
<linearGradient id="paint9_linear_133_388" x1="31.7746" y1="10" x2="83.0296" y2="11.3837" gradientUnits="userSpaceOnUse">
<stop stop-color="#EEB91D"/>
<stop offset="1" stop-color="#FFE878"/>
</linearGradient>
</defs>
</svg>
