<svg width="82" height="33" viewBox="0 0 82 33" fill="none" xmlns="http://www.w3.org/2000/svg">
<rect width="81.278" height="33" rx="16.5" fill="#FFF7D0"/>
<path d="M16.5 12.8438C16.5 12.736 16.4572 12.6327 16.381 12.5565C16.3048 12.4803 16.2015 12.4375 16.0938 12.4375C15.986 12.4375 15.8827 12.4803 15.8065 12.5565C15.7303 12.6327 15.6875 12.736 15.6875 12.8438V17.3125C15.6875 17.3841 15.7065 17.4544 15.7424 17.5164C15.7784 17.5783 15.8301 17.6296 15.8922 17.6651L18.736 19.2901C18.8293 19.3406 18.9387 19.3525 19.0407 19.3234C19.1427 19.2943 19.2292 19.2264 19.2819 19.1343C19.3345 19.0422 19.349 18.9331 19.3223 18.8305C19.2956 18.7278 19.2298 18.6397 19.139 18.5849L16.5 17.0769V12.8438Z" fill="black"/>
<path d="M16.5 23C18.2239 23 19.8772 22.3152 21.0962 21.0962C22.3152 19.8772 23 18.2239 23 16.5C23 14.7761 22.3152 13.1228 21.0962 11.9038C19.8772 10.6848 18.2239 10 16.5 10C14.7761 10 13.1228 10.6848 11.9038 11.9038C10.6848 13.1228 10 14.7761 10 16.5C10 18.2239 10.6848 19.8772 11.9038 21.0962C13.1228 22.3152 14.7761 23 16.5 23ZM22.1875 16.5C22.1875 18.0084 21.5883 19.4551 20.5217 20.5217C19.4551 21.5883 18.0084 22.1875 16.5 22.1875C14.9916 22.1875 13.5449 21.5883 12.4783 20.5217C11.4117 19.4551 10.8125 18.0084 10.8125 16.5C10.8125 14.9916 11.4117 13.5449 12.4783 12.4783C13.5449 11.4117 14.9916 10.8125 16.5 10.8125C18.0084 10.8125 19.4551 11.4117 20.5217 12.4783C21.5883 13.5449 22.1875 14.9916 22.1875 16.5Z" fill="black"/>
<path d="M30.84 17.46V16.6H32.47C32.8167 16.6 33.1033 16.5333 33.33 16.4C33.5567 16.26 33.7267 16.0733 33.84 15.84C33.96 15.6067 34.02 15.3467 34.02 15.06C34.02 14.7667 33.96 14.5033 33.84 14.27C33.7267 14.0367 33.5567 13.8533 33.33 13.72C33.1033 13.5867 32.8167 13.52 32.47 13.52H30.84V12.66H32.29C32.89 12.66 33.39 12.7567 33.79 12.95C34.1967 13.1367 34.5033 13.4033 34.71 13.75C34.9167 14.0967 35.02 14.5067 35.02 14.98V15.14C35.02 15.6067 34.9167 16.0167 34.71 16.37C34.5033 16.7167 34.1967 16.9867 33.79 17.18C33.39 17.3667 32.89 17.46 32.29 17.46H30.84ZM30.06 20V12.66H31.04V20H30.06ZM38.4888 20.18C38.0222 20.18 37.6188 20.1 37.2788 19.94C36.9388 19.78 36.6622 19.57 36.4488 19.31C36.2355 19.0433 36.0755 18.7467 35.9688 18.42C35.8688 18.0933 35.8188 17.76 35.8188 17.42V17.24C35.8188 16.8933 35.8688 16.5567 35.9688 16.23C36.0755 15.9033 36.2355 15.61 36.4488 15.35C36.6622 15.0833 36.9322 14.8733 37.2588 14.72C37.5922 14.56 37.9822 14.48 38.4288 14.48C39.0088 14.48 39.4855 14.6067 39.8588 14.86C40.2388 15.1067 40.5188 15.4267 40.6988 15.82C40.8855 16.2133 40.9788 16.6333 40.9788 17.08V17.51H36.2388V16.79H40.2788L40.0588 17.18C40.0588 16.8 39.9988 16.4733 39.8788 16.2C39.7588 15.92 39.5788 15.7033 39.3388 15.55C39.0988 15.3967 38.7955 15.32 38.4288 15.32C38.0488 15.32 37.7322 15.4067 37.4788 15.58C37.2322 15.7533 37.0455 15.99 36.9188 16.29C36.7988 16.59 36.7388 16.9367 36.7388 17.33C36.7388 17.71 36.7988 18.0533 36.9188 18.36C37.0455 18.66 37.2388 18.9 37.4988 19.08C37.7588 19.2533 38.0888 19.34 38.4888 19.34C38.9088 19.34 39.2488 19.2467 39.5088 19.06C39.7755 18.8733 39.9355 18.6567 39.9888 18.41H40.8888C40.8155 18.7767 40.6688 19.0933 40.4488 19.36C40.2288 19.6267 39.9522 19.83 39.6188 19.97C39.2855 20.11 38.9088 20.18 38.4888 20.18ZM42.3419 20V14.66H43.1019V16.95H42.9819C42.9819 16.4233 43.0519 15.98 43.1919 15.62C43.3385 15.2533 43.5585 14.9767 43.8519 14.79C44.1452 14.5967 44.5152 14.5 44.9619 14.5H45.0019C45.6752 14.5 46.1719 14.71 46.4919 15.13C46.8185 15.55 46.9819 16.1567 46.9819 16.95V20H46.0219V16.75C46.0219 16.3367 45.9052 16.0067 45.6719 15.76C45.4385 15.5067 45.1185 15.38 44.7119 15.38C44.2919 15.38 43.9519 15.51 43.6919 15.77C43.4319 16.03 43.3019 16.3767 43.3019 16.81V20H42.3419ZM50.9684 20.18C50.5884 20.18 50.2384 20.11 49.9184 19.97C49.5984 19.83 49.3184 19.6333 49.0784 19.38C48.845 19.1267 48.6617 18.8333 48.5284 18.5C48.4017 18.1667 48.3384 17.8067 48.3384 17.42V17.24C48.3384 16.86 48.4017 16.5033 48.5284 16.17C48.655 15.8367 48.8317 15.5433 49.0584 15.29C49.2917 15.0367 49.565 14.84 49.8784 14.7C50.1984 14.5533 50.5517 14.48 50.9384 14.48C51.345 14.48 51.715 14.5667 52.0484 14.74C52.3817 14.9067 52.655 15.17 52.8684 15.53C53.0817 15.89 53.2017 16.3567 53.2284 16.93L52.8284 16.29V12.7H53.7884V20H53.0284V17.63H53.3084C53.2817 18.2367 53.155 18.73 52.9284 19.11C52.7017 19.4833 52.415 19.7567 52.0684 19.93C51.7284 20.0967 51.3617 20.18 50.9684 20.18ZM51.0984 19.34C51.425 19.34 51.7217 19.2667 51.9884 19.12C52.255 18.9733 52.4684 18.7633 52.6284 18.49C52.7884 18.21 52.8684 17.8833 52.8684 17.51V17.05C52.8684 16.6833 52.785 16.3733 52.6184 16.12C52.4584 15.86 52.2417 15.6633 51.9684 15.53C51.7017 15.39 51.4084 15.32 51.0884 15.32C50.735 15.32 50.4217 15.4033 50.1484 15.57C49.8817 15.7367 49.6717 15.97 49.5184 16.27C49.3717 16.57 49.2984 16.9233 49.2984 17.33C49.2984 17.7367 49.375 18.0933 49.5284 18.4C49.6817 18.7 49.895 18.9333 50.1684 19.1C50.4417 19.26 50.7517 19.34 51.0984 19.34ZM55.8929 20V14.66H56.8529V20H55.8929ZM55.0729 15.42V14.66H56.8529V15.42H55.0729ZM56.1629 13.8C55.9496 13.8 55.7896 13.7433 55.6829 13.63C55.5829 13.5167 55.5329 13.3733 55.5329 13.2C55.5329 13.0267 55.5829 12.8833 55.6829 12.77C55.7896 12.6567 55.9496 12.6 56.1629 12.6C56.3762 12.6 56.5329 12.6567 56.6329 12.77C56.7396 12.8833 56.7929 13.0267 56.7929 13.2C56.7929 13.3733 56.7396 13.5167 56.6329 13.63C56.5329 13.7433 56.3762 13.8 56.1629 13.8ZM58.7091 20V14.66H59.4691V16.95H59.3491C59.3491 16.4233 59.4191 15.98 59.5591 15.62C59.7057 15.2533 59.9257 14.9767 60.2191 14.79C60.5124 14.5967 60.8824 14.5 61.3291 14.5H61.3691C62.0424 14.5 62.5391 14.71 62.8591 15.13C63.1857 15.55 63.3491 16.1567 63.3491 16.95V20H62.3891V16.75C62.3891 16.3367 62.2724 16.0067 62.0391 15.76C61.8057 15.5067 61.4857 15.38 61.0791 15.38C60.6591 15.38 60.3191 15.51 60.0591 15.77C59.7991 16.03 59.6691 16.3767 59.6691 16.81V20H58.7091ZM67.1255 22.08C66.8789 22.08 66.6289 22.07 66.3755 22.05C66.1289 22.03 65.8922 22.0033 65.6655 21.97V21.16C65.9055 21.1933 66.1555 21.22 66.4155 21.24C66.6822 21.2667 66.9322 21.28 67.1655 21.28C67.6522 21.28 68.0389 21.2133 68.3255 21.08C68.6189 20.9533 68.8289 20.75 68.9555 20.47C69.0889 20.1967 69.1555 19.8433 69.1555 19.41V18.39L69.4755 17.63C69.4555 18.17 69.3422 18.62 69.1355 18.98C68.9289 19.3333 68.6589 19.6 68.3255 19.78C67.9989 19.9533 67.6355 20.04 67.2355 20.04C66.8622 20.04 66.5189 19.97 66.2055 19.83C65.8989 19.6833 65.6322 19.4833 65.4055 19.23C65.1855 18.9767 65.0122 18.6867 64.8855 18.36C64.7655 18.0267 64.7055 17.6767 64.7055 17.31V17.13C64.7055 16.7567 64.7689 16.41 64.8955 16.09C65.0222 15.7633 65.1989 15.48 65.4255 15.24C65.6522 15 65.9222 14.8133 66.2355 14.68C66.5555 14.5467 66.9055 14.48 67.2855 14.48C67.7322 14.48 68.1255 14.5767 68.4655 14.77C68.8055 14.9567 69.0722 15.2333 69.2655 15.6C69.4655 15.96 69.5755 16.4033 69.5955 16.93L69.3155 16.94V14.66H70.0755V19.37C70.0755 20.01 69.9755 20.5267 69.7755 20.92C69.5822 21.32 69.2689 21.6133 68.8355 21.8C68.4089 21.9867 67.8389 22.08 67.1255 22.08ZM67.4155 19.16C67.7355 19.16 68.0255 19.09 68.2855 18.95C68.5522 18.81 68.7622 18.61 68.9155 18.35C69.0755 18.0833 69.1555 17.7667 69.1555 17.4V16.94C69.1555 16.58 69.0722 16.2767 68.9055 16.03C68.7455 15.7833 68.5355 15.5967 68.2755 15.47C68.0155 15.3433 67.7322 15.28 67.4255 15.28C67.0789 15.28 66.7722 15.36 66.5055 15.52C66.2389 15.68 66.0322 15.9067 65.8855 16.2C65.7389 16.4867 65.6655 16.8267 65.6655 17.22C65.6655 17.6133 65.7389 17.9567 65.8855 18.25C66.0389 18.5433 66.2455 18.77 66.5055 18.93C66.7722 19.0833 67.0755 19.16 67.4155 19.16Z" fill="black"/>
</svg>
