<svg width="32" height="32" viewBox="0 0 32 32" fill="none" xmlns="http://www.w3.org/2000/svg">
<path d="M29.1531 11.0859V28.7554C29.1531 30.5471 27.7004 31.9998 25.9084 31.9998H5.43872C3.98828 31.9998 2.8125 30.8242 2.8125 29.3738V11.0862C2.8125 9.63574 3.98828 8.45996 5.43872 8.45996H26.5269C27.9773 8.45996 29.1531 9.63574 29.1531 11.0859Z" fill="url(#paint0_linear_133_441)"/>
<path d="M26.6421 12.978H5.61084C4.67041 12.978 3.9082 12.2158 3.9082 11.2754C3.9082 10.335 4.67041 9.57275 5.61084 9.57275H26.6421C27.5825 9.57275 28.3447 10.335 28.3447 11.2754C28.3447 12.2158 27.5825 12.978 26.6421 12.978Z" fill="url(#paint1_linear_133_441)"/>
<path d="M26.5269 8.45996H23.9883V24.4473H25.9084C27.7002 24.4473 29.1531 22.9944 29.1531 21.2026V11.0859C29.1531 9.63574 27.9773 8.45996 26.5269 8.45996Z" fill="url(#paint2_linear_133_441)"/>
<path d="M26.6902 10.7083C26.6902 16.6223 21.8958 21.4167 15.9817 21.4167C10.0676 21.4167 5.27344 16.6223 5.27344 10.7083C5.27344 4.79419 10.0676 0 15.9817 0C21.8958 0 26.6902 4.79419 26.6902 10.7083Z" fill="url(#paint3_radial_133_441)"/>
<path d="M5.27344 10.7083C5.27344 14.5303 7.27612 17.884 10.2891 19.7788H21.6746C24.6873 17.884 26.6899 14.5303 26.6899 10.7083C26.6899 6.88623 24.6873 3.53271 21.6746 1.6377H10.2891C7.27612 3.53271 5.27344 6.88623 5.27344 10.7083Z" fill="url(#paint4_linear_133_441)"/>
<path d="M5.27344 10.7083C5.27344 13.4348 6.29297 15.9229 7.97095 17.8132H23.9927C25.6704 15.9229 26.6902 13.4348 26.6902 10.7083C26.6902 7.98169 25.6707 5.49365 23.9927 3.60327H7.97095C6.29297 5.49365 5.27344 7.98169 5.27344 10.7083Z" fill="url(#paint5_linear_133_441)"/>
<path d="M5.27344 10.7083C5.27344 12.3018 5.62207 13.8137 6.24634 15.1729H25.7173C26.3416 13.8137 26.6902 12.3018 26.6902 10.7083C26.6902 9.11475 26.3416 7.60278 25.7173 6.2439H6.24634C5.62207 7.60278 5.27344 9.11475 5.27344 10.7083Z" fill="url(#paint6_linear_133_441)"/>
<path d="M5.27344 10.7083C5.27344 11.6306 5.39038 12.5256 5.60986 13.3796H26.3538C26.5732 12.5256 26.6902 11.6309 26.6902 10.7083C26.6902 9.78589 26.5732 8.89087 26.3538 8.03711H5.60986C5.39038 8.89087 5.27344 9.78589 5.27344 10.7083Z" fill="url(#paint7_linear_133_441)"/>
<path d="M15.1313 0.0334473C9.61499 0.467041 5.27344 5.08057 5.27344 10.7083C5.27344 16.3362 9.61499 20.9497 15.1313 21.3831C20.6479 20.9497 24.9895 16.3362 24.9895 10.7083C24.9895 5.08057 20.6479 0.467041 15.1313 0.0334473Z" fill="url(#paint8_radial_133_441)"/>
<path d="M15.6873 1.01367C15.3196 0.963623 14.9463 0.963623 14.5786 1.01367C9.80444 1.66309 6.125 5.75586 6.125 10.7083C6.125 15.6606 9.80444 19.7537 14.5786 20.4031C14.9463 20.4531 15.3196 20.4531 15.6873 20.4031C20.4614 19.7537 24.1406 15.6606 24.1406 10.7083C24.1406 5.75586 20.4614 1.66309 15.6873 1.01367Z" fill="url(#paint9_radial_133_441)"/>
<path d="M22.2493 10.7083C22.2493 6.39331 19.0432 2.89551 15.0884 2.89551C11.1338 2.89551 7.92773 6.39331 7.92773 10.7083C7.92773 15.0232 11.1338 18.5212 15.0884 18.5212C19.0432 18.5212 22.2493 15.0232 22.2493 10.7083Z" fill="url(#paint10_radial_133_441)"/>
<path d="M17.0549 3.19409C16.1636 2.91699 15.2112 2.91699 14.3198 3.19409C11.321 4.12622 9.125 7.13721 9.125 10.7083C9.125 14.3491 11.4077 17.408 14.4966 18.2749C15.2747 18.4932 16.1001 18.4932 16.8779 18.2749C19.967 17.408 22.2498 14.3491 22.2498 10.7083C22.2498 7.13721 20.0537 4.12622 17.0549 3.19409Z" fill="url(#paint11_radial_133_441)"/>
<path d="M22.1672 11.8914L17.427 7.15137C17.3411 7.00122 17.1621 6.87744 16.8904 6.77979C16.6113 6.67944 16.314 6.61133 15.9988 6.57373L15.5828 6.20264C15.5745 6.14404 15.54 6.09082 15.4763 6.0437C15.4028 5.98975 15.3237 5.96265 15.2388 5.96265C15.1462 5.96265 15.0667 5.98975 15.0012 6.0437C14.9355 6.0979 14.9026 6.15967 14.9026 6.22925V6.56543C14.2769 6.63477 13.7534 6.84351 13.3325 7.19116C12.9114 7.53882 12.7009 8.04834 12.7009 8.71948C12.7009 8.9585 12.7278 9.17627 12.782 9.3728C12.8359 9.56958 12.9248 9.74097 13.0486 9.88745C13.1721 10.0339 13.29 10.1594 13.4021 10.2634C13.408 10.269 13.4146 10.2744 13.4207 10.2798L14.9028 11.7654V13.7039C14.5603 13.6809 14.2588 13.5923 13.998 13.438C13.7373 13.2839 13.5325 13.1394 13.3833 13.0044C13.2341 12.8694 13.1138 12.802 13.0222 12.802C12.8838 12.802 12.761 12.8752 12.6536 13.0217C12.5459 13.1682 12.4922 13.3147 12.4922 13.4612C12.4922 13.7012 12.6316 13.9377 12.9089 14.1709L16.9822 18.2441C19.6787 17.4392 21.7402 14.9585 22.1672 11.8914Z" fill="url(#paint12_linear_133_441)"/>
<path d="M12.4922 13.4612C12.4922 13.3147 12.5457 13.1682 12.6533 13.0217C12.7607 12.8752 12.8835 12.802 13.022 12.802C13.1135 12.802 13.2339 12.8694 13.3833 13.0044C13.5322 13.1394 13.7373 13.2839 13.9978 13.438C14.2588 13.5923 14.5601 13.6809 14.9026 13.7039V10.9863C14.6709 10.9014 14.4929 10.834 14.3696 10.7837C14.2458 10.7336 14.0815 10.6604 13.877 10.564C13.6724 10.4678 13.5139 10.3674 13.4019 10.2634C13.2898 10.1592 13.1719 10.0339 13.0483 9.88745C12.9248 9.74097 12.8359 9.56934 12.7817 9.3728C12.7278 9.17627 12.7007 8.95825 12.7007 8.71924C12.7007 8.04834 12.9111 7.53882 13.3323 7.19092C13.7534 6.84326 14.2769 6.63477 14.9026 6.56519V6.22925C14.9026 6.15967 14.9353 6.0979 15.001 6.0437C15.0667 5.98975 15.146 5.96265 15.2388 5.96265C15.3235 5.96265 15.4028 5.98975 15.4763 6.0437C15.5496 6.0979 15.5864 6.15967 15.5864 6.22925V6.54199C16.0576 6.55762 16.4922 6.63672 16.8901 6.77954C17.2881 6.92261 17.4871 7.12158 17.4871 7.37646C17.4871 7.51562 17.4402 7.6604 17.3467 7.81104C17.2532 7.96167 17.1284 8.03687 16.9727 8.03687C16.9111 8.03687 16.7417 7.97144 16.4651 7.83984C16.1882 7.70874 15.8953 7.63135 15.5864 7.60815V9.95679C15.8938 10.0725 16.1492 10.1824 16.3528 10.2864C16.5562 10.3906 16.7715 10.5352 16.9983 10.7202C17.2249 10.9053 17.3958 11.1384 17.511 11.4197C17.6262 11.7012 17.6838 12.031 17.6838 12.4087C17.6838 13.0989 17.4956 13.6475 17.1191 14.0547C16.7427 14.4617 16.2317 14.7117 15.5864 14.8047V15.1919C15.5864 15.2603 15.5496 15.3208 15.4763 15.374C15.4028 15.4272 15.3235 15.4539 15.2388 15.4539C15.146 15.4539 15.0667 15.4272 15.001 15.3743C14.9353 15.321 14.9026 15.2603 14.9026 15.1921V14.8396C14.2305 14.8318 13.6606 14.678 13.1931 14.3782C12.7256 14.0786 12.4922 13.7727 12.4922 13.4612ZM13.8479 8.60376C13.8479 8.90454 13.9417 9.13403 14.1289 9.29199C14.3162 9.44995 14.5972 9.59839 14.9719 9.73706V7.63037C14.2227 7.72314 13.8479 8.04761 13.8479 8.60376ZM15.5168 13.6809C16.1965 13.5576 16.5366 13.1758 16.5366 12.5359C16.5366 12.1968 16.4478 11.9307 16.27 11.738C16.0923 11.5454 15.8413 11.3796 15.5168 11.2407V13.6809Z" fill="url(#paint13_linear_133_441)"/>
<path d="M29.1533 16.1421V28.7554C29.1533 30.5471 27.7004 32 25.9087 32H23.9883V13.417H25.5813C26.1711 13.417 26.7019 13.6665 27.0759 14.0647L29.1533 16.1421Z" fill="url(#paint14_linear_133_441)"/>
<path d="M27.6316 15.4675V29.7261C27.6316 30.9817 26.6135 31.9998 25.3577 31.9998H5.08643C3.83081 31.9998 2.8125 30.9822 2.8125 29.7261V11.0859C2.8125 12.3733 3.8562 13.417 5.14429 13.417H25.5811C26.7136 13.417 27.6316 14.3352 27.6316 15.4675Z" fill="url(#paint15_linear_133_441)"/>
<path d="M10.8308 31.9998H5.08618C3.83057 31.9998 2.8125 30.9819 2.8125 29.7261V11.0857C2.8125 12.3733 3.85645 13.417 5.1438 13.417H10.8311V31.9998H10.8308Z" fill="url(#paint16_linear_133_441)"/>
<path d="M27.0903 20.1409H21.1421C20.4434 20.1409 19.877 20.7073 19.877 21.406V23.9109C19.877 24.3081 20.0603 24.6621 20.3467 24.894L27.1892 31.7366C28.3438 31.2395 29.1523 30.092 29.1523 28.7554V18.0791C29.1523 19.2178 28.229 20.1409 27.0903 20.1409Z" fill="url(#paint17_linear_133_441)"/>
<path d="M27.0903 25.176H21.1421C20.4434 25.176 19.877 24.6096 19.877 23.9109V21.406C19.877 20.7073 20.4434 20.1409 21.1421 20.1409H27.0903C28.229 20.1409 29.1523 19.2178 29.1523 18.0791V23.1143C29.1523 24.2529 28.229 25.176 27.0903 25.176Z" fill="url(#paint18_linear_133_441)"/>
<path d="M23.5435 21.8267C23.2834 21.5469 22.9133 21.3706 22.5012 21.3706C21.7153 21.3706 21.0781 22.0078 21.0781 22.7937C21.0781 23.2058 21.2544 23.5759 21.5344 23.8357L22.8748 25.176H26.8926L23.5435 21.8267Z" fill="url(#paint19_linear_133_441)"/>
<path d="M23.9246 22.7937C23.9246 23.5796 23.2874 24.2168 22.5012 24.2168C21.7153 24.2168 21.0781 23.5796 21.0781 22.7937C21.0781 22.0078 21.7153 21.3706 22.5012 21.3706C23.2874 21.3706 23.9246 22.0078 23.9246 22.7937Z" fill="url(#paint20_radial_133_441)"/>
<path d="M27.0901 20.1409H24.793V25.176H27.0901C28.2288 25.176 29.1521 24.2529 29.1521 23.1143V18.0791C29.1521 19.2178 28.2288 20.1409 27.0901 20.1409Z" fill="url(#paint21_linear_133_441)"/>
<path d="M2.8125 27.1072V29.3738C2.8125 30.824 3.98828 31.9998 5.43872 31.9998H25.9084C27.7004 31.9998 29.1531 30.5471 29.1531 28.7554V27.1072H2.8125Z" fill="url(#paint22_linear_133_441)"/>
<defs>
<linearGradient id="paint0_linear_133_441" x1="9.96704" y1="14.2142" x2="27.5075" y2="31.7546" gradientUnits="userSpaceOnUse">
<stop stop-color="#FF4974"/>
<stop offset="0.3262" stop-color="#FE4672"/>
<stop offset="0.5324" stop-color="#FB3E6C"/>
<stop offset="0.7054" stop-color="#F52F60"/>
<stop offset="0.8591" stop-color="#EE1A51"/>
<stop offset="1" stop-color="#E4003D"/>
</linearGradient>
<linearGradient id="paint1_linear_133_441" x1="16.1814" y1="11.6347" x2="15.1744" y2="5.04992" gradientUnits="userSpaceOnUse">
<stop stop-color="#E4003D" stop-opacity="0"/>
<stop offset="0.5838" stop-color="#BD294B" stop-opacity="0.584314"/>
<stop offset="1" stop-color="#A64153"/>
</linearGradient>
<linearGradient id="paint2_linear_133_441" x1="25.2255" y1="16.1211" x2="21.8466" y2="13.6697" gradientUnits="userSpaceOnUse">
<stop stop-color="#E4003D" stop-opacity="0"/>
<stop offset="0.5838" stop-color="#BD294B" stop-opacity="0.584314"/>
<stop offset="1" stop-color="#A64153"/>
</linearGradient>
<radialGradient id="paint3_radial_133_441" cx="0" cy="0" r="1" gradientUnits="userSpaceOnUse" gradientTransform="translate(15.4618 10.3392) scale(11.1531)">
<stop stop-color="#FFA700"/>
<stop offset="0.3227" stop-color="#FCA300"/>
<stop offset="0.6649" stop-color="#F39600"/>
<stop offset="1" stop-color="#E58200"/>
</radialGradient>
<linearGradient id="paint4_linear_133_441" x1="15.9818" y1="9.01649" x2="15.9818" y2="28.1518" gradientUnits="userSpaceOnUse">
<stop stop-color="#E58200" stop-opacity="0"/>
<stop offset="0.0396" stop-color="#E27F04" stop-opacity="0.039216"/>
<stop offset="0.4671" stop-color="#C15D2F" stop-opacity="0.466667"/>
<stop offset="0.8016" stop-color="#AD4949" stop-opacity="0.8"/>
<stop offset="1" stop-color="#A64153"/>
</linearGradient>
<linearGradient id="paint5_linear_133_441" x1="15.9818" y1="13.2996" x2="15.9818" y2="-6.03737" gradientUnits="userSpaceOnUse">
<stop stop-color="#E58200" stop-opacity="0"/>
<stop offset="0.0396" stop-color="#E27F04" stop-opacity="0.039216"/>
<stop offset="0.4671" stop-color="#C15D2F" stop-opacity="0.466667"/>
<stop offset="0.8016" stop-color="#AD4949" stop-opacity="0.8"/>
<stop offset="1" stop-color="#A64153"/>
</linearGradient>
<linearGradient id="paint6_linear_133_441" x1="15.9818" y1="11.0321" x2="15.9818" y2="17.2163" gradientUnits="userSpaceOnUse">
<stop stop-color="#E58200" stop-opacity="0"/>
<stop offset="0.0396" stop-color="#E27F04" stop-opacity="0.039216"/>
<stop offset="0.4671" stop-color="#C15D2F" stop-opacity="0.466667"/>
<stop offset="0.8016" stop-color="#AD4949" stop-opacity="0.8"/>
<stop offset="1" stop-color="#A64153"/>
</linearGradient>
<linearGradient id="paint7_linear_133_441" x1="15.9818" y1="13.0476" x2="15.9818" y2="2.51678" gradientUnits="userSpaceOnUse">
<stop stop-color="#E58200" stop-opacity="0"/>
<stop offset="0.0396" stop-color="#E27F04" stop-opacity="0.039216"/>
<stop offset="0.4671" stop-color="#C15D2F" stop-opacity="0.466667"/>
<stop offset="0.8016" stop-color="#AD4949" stop-opacity="0.8"/>
<stop offset="1" stop-color="#A64153"/>
</linearGradient>
<radialGradient id="paint8_radial_133_441" cx="0" cy="0" r="1" gradientUnits="userSpaceOnUse" gradientTransform="translate(11.9975 7.81974) scale(14.991)">
<stop stop-color="#FFC738"/>
<stop offset="0.2837" stop-color="#FFC534"/>
<stop offset="0.5391" stop-color="#FFBF29"/>
<stop offset="0.7827" stop-color="#FFB417"/>
<stop offset="1" stop-color="#FFA700"/>
</radialGradient>
<radialGradient id="paint9_radial_133_441" cx="0" cy="0" r="1" gradientUnits="userSpaceOnUse" gradientTransform="translate(15.1329 10.7083) scale(9.37704)">
<stop stop-color="#FFFCF8"/>
<stop offset="0.9485" stop-color="#FFFCF8" stop-opacity="0.05098"/>
<stop offset="1" stop-color="#FFFCF8" stop-opacity="0"/>
</radialGradient>
<radialGradient id="paint10_radial_133_441" cx="0" cy="0" r="1" gradientUnits="userSpaceOnUse" gradientTransform="translate(15.8215 9.70651) scale(11.2071 12.2281)">
<stop stop-color="#FFA700"/>
<stop offset="0.3227" stop-color="#FCA300"/>
<stop offset="0.6649" stop-color="#F39600"/>
<stop offset="1" stop-color="#E58200"/>
</radialGradient>
<radialGradient id="paint11_radial_133_441" cx="0" cy="0" r="1" gradientUnits="userSpaceOnUse" gradientTransform="translate(12.9578 8.02111) scale(11.4207)">
<stop stop-color="#FFC738"/>
<stop offset="0.2837" stop-color="#FFC534"/>
<stop offset="0.5391" stop-color="#FFBF29"/>
<stop offset="0.7827" stop-color="#FFB417"/>
<stop offset="1" stop-color="#FFA700"/>
</radialGradient>
<linearGradient id="paint12_linear_133_441" x1="19.1794" y1="12.8079" x2="11.9145" y2="11.1281" gradientUnits="userSpaceOnUse">
<stop stop-color="#FFA700" stop-opacity="0"/>
<stop offset="0.0206" stop-color="#FEA600" stop-opacity="0.019608"/>
<stop offset="0.6348" stop-color="#EC8C00" stop-opacity="0.635294"/>
<stop offset="1" stop-color="#E58200"/>
</linearGradient>
<linearGradient id="paint13_linear_133_441" x1="14.554" y1="10.7083" x2="17.1849" y2="10.7083" gradientUnits="userSpaceOnUse">
<stop stop-color="#FFA700"/>
<stop offset="0.3227" stop-color="#FCA300"/>
<stop offset="0.6649" stop-color="#F39600"/>
<stop offset="1" stop-color="#E58200"/>
</linearGradient>
<linearGradient id="paint14_linear_133_441" x1="31.9356" y1="23.2597" x2="25.273" y2="22.7433" gradientUnits="userSpaceOnUse">
<stop stop-color="#E4003D" stop-opacity="0"/>
<stop offset="0.5838" stop-color="#BD294B" stop-opacity="0.584314"/>
<stop offset="1" stop-color="#A64153"/>
</linearGradient>
<linearGradient id="paint15_linear_133_441" x1="11.1094" y1="18.5304" x2="25.5959" y2="33.0169" gradientUnits="userSpaceOnUse">
<stop stop-color="#FF4974"/>
<stop offset="0.2115" stop-color="#FD4470"/>
<stop offset="0.4685" stop-color="#F83565"/>
<stop offset="0.748" stop-color="#EF1D52"/>
<stop offset="1" stop-color="#E4003D"/>
</linearGradient>
<linearGradient id="paint16_linear_133_441" x1="5.1622" y1="21.5428" x2="0.609036" y2="21.5428" gradientUnits="userSpaceOnUse">
<stop stop-color="#E4003D" stop-opacity="0"/>
<stop offset="0.5838" stop-color="#BD294B" stop-opacity="0.584314"/>
<stop offset="1" stop-color="#A64153"/>
</linearGradient>
<linearGradient id="paint17_linear_133_441" x1="27.2703" y1="29.5467" x2="24.6202" y2="21.4197" gradientUnits="userSpaceOnUse">
<stop stop-color="#E4003D" stop-opacity="0"/>
<stop offset="0.5838" stop-color="#BD294B" stop-opacity="0.584314"/>
<stop offset="1" stop-color="#A64153"/>
</linearGradient>
<linearGradient id="paint18_linear_133_441" x1="24.1672" y1="20.3848" x2="26.5918" y2="25.6189" gradientUnits="userSpaceOnUse">
<stop stop-color="#FFFCF8"/>
<stop offset="0.1875" stop-color="#FAF8F6"/>
<stop offset="0.4041" stop-color="#ECEEF2"/>
<stop offset="0.6353" stop-color="#D5DCEA"/>
<stop offset="0.875" stop-color="#B5C4DF"/>
<stop offset="1" stop-color="#A1B5D8"/>
</linearGradient>
<linearGradient id="paint19_linear_133_441" x1="24.961" y1="25.2533" x2="21.37" y2="21.6623" gradientUnits="userSpaceOnUse">
<stop stop-color="#A1B5D8" stop-opacity="0"/>
<stop offset="0.0343" stop-color="#9FB3D5" stop-opacity="0.035294"/>
<stop offset="0.4515" stop-color="#8898AF" stop-opacity="0.45098"/>
<stop offset="0.788" stop-color="#798898" stop-opacity="0.788235"/>
<stop offset="1" stop-color="#748290"/>
</linearGradient>
<radialGradient id="paint20_radial_133_441" cx="0" cy="0" r="1" gradientUnits="userSpaceOnUse" gradientTransform="translate(21.1725 20.8277) scale(3.19265)">
<stop stop-color="#00E7B2"/>
<stop offset="0.3524" stop-color="#03E6B1"/>
<stop offset="0.5753" stop-color="#0BE1AF"/>
<stop offset="0.7622" stop-color="#1ADAAA"/>
<stop offset="0.9283" stop-color="#2FCFA4"/>
<stop offset="1" stop-color="#3AC9A0"/>
</radialGradient>
<linearGradient id="paint21_linear_133_441" x1="27.4435" y1="21.6275" x2="29.697" y2="21.6275" gradientUnits="userSpaceOnUse">
<stop stop-color="#A1B5D8" stop-opacity="0"/>
<stop offset="0.0343" stop-color="#9FB3D5" stop-opacity="0.035294"/>
<stop offset="0.4515" stop-color="#8898AF" stop-opacity="0.45098"/>
<stop offset="0.788" stop-color="#798898" stop-opacity="0.788235"/>
<stop offset="1" stop-color="#748290"/>
</linearGradient>
<linearGradient id="paint22_linear_133_441" x1="15.9828" y1="30.1449" x2="15.9828" y2="32.4676" gradientUnits="userSpaceOnUse">
<stop stop-color="#E4003D" stop-opacity="0"/>
<stop offset="0.5838" stop-color="#BD294B" stop-opacity="0.584314"/>
<stop offset="1" stop-color="#A64153"/>
</linearGradient>
</defs>
</svg>
