<svg width="282" height="282" viewBox="0 0 282 282" fill="none" xmlns="http://www.w3.org/2000/svg">
<path d="M0 0H68.069V9.72414H0V0ZM116.69 0H126.414V9.72414H116.69V0ZM155.586 0H165.31V9.72414H155.586V0ZM175.034 0H184.759V9.72414H175.034V0ZM194.483 0H204.207V9.72414H194.483V0ZM213.931 0H282V9.72414H213.931V0ZM0 9.72414H9.72414V19.4483H0V9.72414ZM58.3448 9.72414H68.069V19.4483H58.3448V9.72414ZM87.5172 9.72414H97.2414V19.4483H87.5172V9.72414ZM136.138 9.72414H155.586V19.4483H136.138V9.72414ZM165.31 9.72414H175.034V19.4483H165.31V9.72414ZM194.483 9.72414H204.207V19.4483H194.483V9.72414ZM213.931 9.72414H223.655V19.4483H213.931V9.72414ZM272.276 9.72414H282V19.4483H272.276V9.72414ZM0 19.4483H9.72414V29.1724H0V19.4483ZM19.4483 19.4483H48.6207V29.1724H19.4483V19.4483ZM58.3448 19.4483H68.069V29.1724H58.3448V19.4483ZM77.7931 19.4483H87.5172V29.1724H77.7931V19.4483ZM97.2414 19.4483H116.69V29.1724H97.2414V19.4483ZM155.586 19.4483H165.31V29.1724H155.586V19.4483ZM175.034 19.4483H194.483V29.1724H175.034V19.4483ZM213.931 19.4483H223.655V29.1724H213.931V19.4483ZM233.379 19.4483H262.552V29.1724H233.379V19.4483ZM272.276 19.4483H282V29.1724H272.276V19.4483ZM0 29.1724H9.72414V38.8966H0V29.1724ZM19.4483 29.1724H48.6207V38.8966H19.4483V29.1724ZM58.3448 29.1724H68.069V38.8966H58.3448V29.1724ZM77.7931 29.1724H97.2414V38.8966H77.7931V29.1724ZM106.966 29.1724H116.69V38.8966H106.966V29.1724ZM126.414 29.1724H136.138V38.8966H126.414V29.1724ZM145.862 29.1724H155.586V38.8966H145.862V29.1724ZM165.31 29.1724H175.034V38.8966H165.31V29.1724ZM194.483 29.1724H204.207V38.8966H194.483V29.1724ZM213.931 29.1724H223.655V38.8966H213.931V29.1724ZM233.379 29.1724H262.552V38.8966H233.379V29.1724ZM272.276 29.1724H282V38.8966H272.276V29.1724ZM0 38.8966H9.72414V48.6207H0V38.8966ZM19.4483 38.8966H48.6207V48.6207H19.4483V38.8966ZM58.3448 38.8966H68.069V48.6207H58.3448V38.8966ZM77.7931 38.8966H106.966V48.6207H77.7931V38.8966ZM116.69 38.8966H126.414V48.6207H116.69V38.8966ZM136.138 38.8966H165.31V48.6207H136.138V38.8966ZM175.034 38.8966H194.483V48.6207H175.034V38.8966ZM213.931 38.8966H223.655V48.6207H213.931V38.8966ZM233.379 38.8966H262.552V48.6207H233.379V38.8966ZM272.276 38.8966H282V48.6207H272.276V38.8966ZM0 48.6207H9.72414V58.3448H0V48.6207ZM58.3448 48.6207H68.069V58.3448H58.3448V48.6207ZM77.7931 48.6207H87.5172V58.3448H77.7931V48.6207ZM97.2414 48.6207H126.414V58.3448H97.2414V48.6207ZM136.138 48.6207H165.31V58.3448H136.138V48.6207ZM194.483 48.6207H204.207V58.3448H194.483V48.6207ZM213.931 48.6207H223.655V58.3448H213.931V48.6207ZM272.276 48.6207H282V58.3448H272.276V48.6207ZM0 58.3448H68.069V68.069H0V58.3448ZM77.7931 58.3448H87.5172V68.069H77.7931V58.3448ZM97.2414 58.3448H106.966V68.069H97.2414V58.3448ZM116.69 58.3448H126.414V68.069H116.69V58.3448ZM136.138 58.3448H145.862V68.069H136.138V58.3448ZM155.586 58.3448H165.31V68.069H155.586V58.3448ZM175.034 58.3448H184.759V68.069H175.034V58.3448ZM194.483 58.3448H204.207V68.069H194.483V58.3448ZM213.931 58.3448H282V68.069H213.931V58.3448ZM77.7931 68.069H97.2414V77.7931H77.7931V68.069ZM106.966 68.069H116.69V77.7931H106.966V68.069ZM145.862 68.069H155.586V77.7931H145.862V68.069ZM194.483 68.069H204.207V77.7931H194.483V68.069ZM0 77.7931H9.72414V87.5172H0V77.7931ZM19.4483 77.7931H68.069V87.5172H19.4483V77.7931ZM116.69 77.7931H136.138V87.5172H116.69V77.7931ZM145.862 77.7931H155.586V87.5172H145.862V77.7931ZM165.31 77.7931H184.759V87.5172H165.31V77.7931ZM213.931 77.7931H262.552V87.5172H213.931V77.7931ZM0 87.5172H9.72414V97.2414H0V87.5172ZM38.8966 87.5172H58.3448V97.2414H38.8966V87.5172ZM77.7931 87.5172H87.5172V97.2414H77.7931V87.5172ZM97.2414 87.5172H116.69V97.2414H97.2414V87.5172ZM136.138 87.5172H145.862V97.2414H136.138V87.5172ZM155.586 87.5172H165.31V97.2414H155.586V87.5172ZM194.483 87.5172H204.207V97.2414H194.483V87.5172ZM213.931 87.5172H223.655V97.2414H213.931V87.5172ZM233.379 87.5172H243.103V97.2414H233.379V87.5172ZM272.276 87.5172H282V97.2414H272.276V87.5172ZM0 97.2414H9.72414V106.966H0V97.2414ZM38.8966 97.2414H48.6207V106.966H38.8966V97.2414ZM58.3448 97.2414H68.069V106.966H58.3448V97.2414ZM106.966 97.2414H116.69V106.966H106.966V97.2414ZM145.862 97.2414H165.31V106.966H145.862V97.2414ZM204.207 97.2414H213.931V106.966H204.207V97.2414ZM233.379 97.2414H272.276V106.966H233.379V97.2414ZM19.4483 106.966H38.8966V116.69H19.4483V106.966ZM48.6207 106.966H58.3448V116.69H48.6207V106.966ZM116.69 106.966H126.414V116.69H116.69V106.966ZM145.862 106.966H155.586V116.69H145.862V106.966ZM175.034 106.966H194.483V116.69H175.034V106.966ZM223.655 106.966H243.103V116.69H223.655V106.966ZM262.552 106.966H282V116.69H262.552V106.966ZM9.72414 116.69H38.8966V126.414H9.72414V116.69ZM58.3448 116.69H77.7931V126.414H58.3448V116.69ZM87.5172 116.69H106.966V126.414H87.5172V116.69ZM126.414 116.69H136.138V126.414H126.414V116.69ZM145.862 116.69H184.759V126.414H145.862V116.69ZM223.655 116.69H233.379V126.414H223.655V116.69ZM243.103 116.69H272.276V126.414H243.103V116.69ZM38.8966 126.414H48.6207V136.138H38.8966V126.414ZM68.069 126.414H77.7931V136.138H68.069V126.414ZM87.5172 126.414H97.2414V136.138H87.5172V126.414ZM106.966 126.414H116.69V136.138H106.966V126.414ZM126.414 126.414H145.862V136.138H126.414V126.414ZM165.31 126.414H175.034V136.138H165.31V126.414ZM184.759 126.414H213.931V136.138H184.759V126.414ZM233.379 126.414H243.103V136.138H233.379V126.414ZM262.552 126.414H272.276V136.138H262.552V126.414ZM9.72414 136.138H29.1724V145.862H9.72414V136.138ZM58.3448 136.138H77.7931V145.862H58.3448V136.138ZM145.862 136.138H155.586V145.862H145.862V136.138ZM175.034 136.138H184.759V145.862H175.034V136.138ZM223.655 136.138H262.552V145.862H223.655V136.138ZM0 145.862H19.4483V155.586H0V145.862ZM29.1724 145.862H38.8966V155.586H29.1724V145.862ZM77.7931 145.862H97.2414V155.586H77.7931V145.862ZM136.138 145.862H145.862V155.586H136.138V145.862ZM155.586 145.862H165.31V155.586H155.586V145.862ZM175.034 145.862H204.207V155.586H175.034V145.862ZM233.379 145.862H243.103V155.586H233.379V145.862ZM262.552 145.862H272.276V155.586H262.552V145.862ZM0 155.586H19.4483V165.31H0V155.586ZM38.8966 155.586H48.6207V165.31H38.8966V155.586ZM58.3448 155.586H68.069V165.31H58.3448V155.586ZM97.2414 155.586H116.69V165.31H97.2414V155.586ZM126.414 155.586H136.138V165.31H126.414V155.586ZM145.862 155.586H155.586V165.31H145.862V155.586ZM165.31 155.586H175.034V165.31H165.31V155.586ZM204.207 155.586H213.931V165.31H204.207V155.586ZM233.379 155.586H282V165.31H233.379V155.586ZM0 165.31H19.4483V175.034H0V165.31ZM29.1724 165.31H48.6207V175.034H29.1724V165.31ZM77.7931 165.31H87.5172V175.034H77.7931V165.31ZM97.2414 165.31H126.414V175.034H97.2414V165.31ZM136.138 165.31H145.862V175.034H136.138V165.31ZM155.586 165.31H165.31V175.034H155.586V165.31ZM175.034 165.31H204.207V175.034H175.034V165.31ZM213.931 165.31H243.103V175.034H213.931V165.31ZM252.828 165.31H262.552V175.034H252.828V165.31ZM272.276 165.31H282V175.034H272.276V165.31ZM0 175.034H9.72414V184.759H0V175.034ZM38.8966 175.034H68.069V184.759H38.8966V175.034ZM97.2414 175.034H136.138V184.759H97.2414V175.034ZM145.862 175.034H155.586V184.759H145.862V175.034ZM204.207 175.034H233.379V184.759H204.207V175.034ZM0 184.759H9.72414V194.483H0V184.759ZM29.1724 184.759H58.3448V194.483H29.1724V184.759ZM68.069 184.759H126.414V194.483H68.069V184.759ZM136.138 184.759H145.862V194.483H136.138V184.759ZM155.586 184.759H165.31V194.483H155.586V184.759ZM194.483 184.759H213.931V194.483H194.483V184.759ZM223.655 184.759H252.828V194.483H223.655V184.759ZM262.552 184.759H272.276V194.483H262.552V184.759ZM0 194.483H9.72414V204.207H0V194.483ZM19.4483 194.483H29.1724V204.207H19.4483V194.483ZM48.6207 194.483H116.69V204.207H48.6207V194.483ZM126.414 194.483H136.138V204.207H126.414V194.483ZM145.862 194.483H155.586V204.207H145.862V194.483ZM165.31 194.483H184.759V204.207H165.31V194.483ZM194.483 194.483H243.103V204.207H194.483V194.483ZM252.828 194.483H272.276V204.207H252.828V194.483ZM77.7931 204.207H87.5172V213.931H77.7931V204.207ZM106.966 204.207H126.414V213.931H106.966V204.207ZM136.138 204.207H165.31V213.931H136.138V204.207ZM194.483 204.207H204.207V213.931H194.483V204.207ZM233.379 204.207H252.828V213.931H233.379V204.207ZM272.276 204.207H282V213.931H272.276V204.207ZM0 213.931H68.069V223.655H0V213.931ZM87.5172 213.931H97.2414V223.655H87.5172V213.931ZM106.966 213.931H116.69V223.655H106.966V213.931ZM126.414 213.931H136.138V223.655H126.414V213.931ZM145.862 213.931H165.31V223.655H145.862V213.931ZM184.759 213.931H204.207V223.655H184.759V213.931ZM213.931 213.931H223.655V223.655H213.931V213.931ZM233.379 213.931H252.828V223.655H233.379V213.931ZM262.552 213.931H272.276V223.655H262.552V213.931ZM0 223.655H9.72414V233.379H0V223.655ZM58.3448 223.655H68.069V233.379H58.3448V223.655ZM77.7931 223.655H87.5172V233.379H77.7931V223.655ZM106.966 223.655H116.69V233.379H106.966V223.655ZM155.586 223.655H165.31V233.379H155.586V223.655ZM184.759 223.655H204.207V233.379H184.759V223.655ZM233.379 223.655H252.828V233.379H233.379V223.655ZM262.552 223.655H282V233.379H262.552V223.655ZM0 233.379H9.72414V243.103H0V233.379ZM19.4483 233.379H48.6207V243.103H19.4483V233.379ZM58.3448 233.379H68.069V243.103H58.3448V233.379ZM77.7931 233.379H126.414V243.103H77.7931V233.379ZM145.862 233.379H165.31V243.103H145.862V233.379ZM194.483 233.379H243.103V243.103H194.483V233.379ZM262.552 233.379H282V243.103H262.552V233.379ZM0 243.103H9.72414V252.828H0V243.103ZM19.4483 243.103H48.6207V252.828H19.4483V243.103ZM58.3448 243.103H68.069V252.828H58.3448V243.103ZM77.7931 243.103H87.5172V252.828H77.7931V243.103ZM175.034 243.103H213.931V252.828H175.034V243.103ZM223.655 243.103H233.379V252.828H223.655V243.103ZM243.103 243.103H252.828V252.828H243.103V243.103ZM262.552 243.103H282V252.828H262.552V243.103ZM0 252.828H9.72414V262.552H0V252.828ZM19.4483 252.828H48.6207V262.552H19.4483V252.828ZM58.3448 252.828H68.069V262.552H58.3448V252.828ZM77.7931 252.828H87.5172V262.552H77.7931V252.828ZM97.2414 252.828H106.966V262.552H97.2414V252.828ZM116.69 252.828H165.31V262.552H116.69V252.828ZM175.034 252.828H184.759V262.552H175.034V252.828ZM213.931 252.828H223.655V262.552H213.931V252.828ZM233.379 252.828H243.103V262.552H233.379V252.828ZM252.828 252.828H272.276V262.552H252.828V252.828ZM0 262.552H9.72414V272.276H0V262.552ZM58.3448 262.552H68.069V272.276H58.3448V262.552ZM106.966 262.552H126.414V272.276H106.966V262.552ZM136.138 262.552H145.862V272.276H136.138V262.552ZM194.483 262.552H204.207V272.276H194.483V262.552ZM223.655 262.552H233.379V272.276H223.655V262.552ZM262.552 262.552H272.276V272.276H262.552V262.552ZM0 272.276H68.069V282H0V272.276ZM77.7931 272.276H136.138V282H77.7931V272.276ZM145.862 272.276H155.586V282H145.862V272.276ZM165.31 272.276H175.034V282H165.31V272.276ZM184.759 272.276H194.483V282H184.759V272.276ZM204.207 272.276H262.552V282H204.207V272.276Z" fill="black"/>
</svg>
