<svg width="56" height="56" viewBox="0 0 56 56" fill="none" xmlns="http://www.w3.org/2000/svg">
<rect width="56" height="56" rx="28" fill="#FFE878" fill-opacity="0.1"/>
<g clip-path="url(#clip0_155_11933)">
<path d="M26.2437 34.4718C21.7024 34.4718 18.0078 30.7772 18.0078 26.2359C18.0078 21.6946 21.7024 18 26.2437 18C30.785 18 34.4796 21.6946 34.4796 26.2359C34.4796 30.7772 30.785 34.4718 26.2437 34.4718ZM26.2437 19.5613C22.5633 19.5613 19.5691 22.5555 19.5691 26.2359C19.5691 29.9163 22.5633 32.9105 26.2437 32.9105C29.9241 32.9105 32.9183 29.9163 32.9183 26.2359C32.9183 22.5555 29.9241 19.5613 26.2437 19.5613ZM37.7639 37.7713C38.0687 37.4665 38.0687 36.9722 37.7639 36.6673L34.2705 33.1739C33.9656 32.869 33.4713 32.869 33.1664 33.1739C32.8616 33.4788 32.8616 33.9731 33.1664 34.2779L36.6599 37.7713C36.8123 37.9238 37.0121 38 37.2119 38C37.4117 38 37.6114 37.9238 37.7639 37.7713Z" fill="#EEB91D"/>
</g>
<defs>
<clipPath id="clip0_155_11933">
<rect width="20" height="20" fill="white" transform="translate(18 18)"/>
</clipPath>
</defs>
</svg>
