<svg width="28" height="28" viewBox="0 0 28 28" fill="none" xmlns="http://www.w3.org/2000/svg">
<path d="M13.9997 25.6666C20.443 25.6666 25.6663 20.4433 25.6663 14C25.6663 7.55666 20.443 2.33331 13.9997 2.33331C7.55635 2.33331 2.33301 7.55666 2.33301 14C2.33301 20.4433 7.55635 25.6666 13.9997 25.6666Z" fill="#FFD54F"/>
<path d="M13.9993 23.3333C19.154 23.3333 23.3327 19.1546 23.3327 14C23.3327 8.8453 19.154 4.66663 13.9993 4.66663C8.84469 4.66663 4.66602 8.8453 4.66602 14C4.66602 19.1546 8.84469 23.3333 13.9993 23.3333Z" fill="#F0A62D"/>
<path d="M14 22.75C18.8325 22.75 22.75 18.8325 22.75 14C22.75 9.16751 18.8325 5.25 14 5.25C9.16751 5.25 5.25 9.16751 5.25 14C5.25 18.8325 9.16751 22.75 14 22.75Z" fill="#FEC107"/>
<path d="M7.51074 14.2336L9.06909 12.6752L10.6373 14.2435L9.07899 15.8018L7.51074 14.2336Z" fill="#F0A62D"/>
<path d="M12.7373 14.2333L14.2305 12.7402L15.7237 14.2333L14.2305 15.7265L12.7373 14.2333Z" fill="#F0A62D"/>
<path d="M16.7816 15.288L18.3403 16.8466L14.2336 20.9533L11.6203 18.34L10.127 16.8466L11.6856 15.288H11.6949L13.1789 16.7813H13.1883L14.2336 17.8266L15.2883 16.7813L16.7816 15.288Z" fill="#F0A62D"/>
<path d="M11.6949 13.188L10.127 11.62L11.6203 10.1266L14.2336 7.51331L18.3403 11.62L16.7816 13.1787V13.188L15.2883 11.6947L14.2336 10.64L13.1883 11.6947L11.6949 13.188Z" fill="#F0A62D"/>
<path d="M17.8281 14.2341L19.3889 12.6732L20.9498 14.2341L19.3889 15.7949L17.8281 14.2341Z" fill="#F0A62D"/>
<path d="M7.27734 14.0002L8.83569 12.4419L10.4039 14.0101L8.84559 15.5685L7.27734 14.0002Z" fill="white"/>
<path d="M12.5029 14L13.9961 12.5068L15.4893 14L13.9961 15.4932L12.5029 14Z" fill="white"/>
<path d="M16.5472 15.0546L18.1059 16.6133L13.9992 20.72L11.3859 18.1066L9.89258 16.6133L11.4512 15.0546H11.4606L12.9445 16.5479H12.9539L13.9992 17.5933L15.0539 16.5479L16.5472 15.0546Z" fill="white"/>
<path d="M11.4606 12.9546L9.89258 11.3867L11.3859 9.89329L13.9992 7.27997L18.1059 11.3867L16.5472 12.9453V12.9546L15.0539 11.4613L13.9992 10.4067L12.9539 11.4613L11.4606 12.9546Z" fill="white"/>
<path d="M17.5947 14.0007L19.1555 12.4399L20.7164 14.0007L19.1555 15.5616L17.5947 14.0007Z" fill="white"/>
</svg>
