<svg width="106" height="19" viewBox="0 0 106 19" fill="none" xmlns="http://www.w3.org/2000/svg">
<path d="M8.48329 1.56706C8.59347 1.22797 9.0732 1.22797 9.18337 1.56706L10.7339 6.33911C10.7832 6.49076 10.9245 6.59343 11.0839 6.59343H16.1016C16.4581 6.59343 16.6064 7.04968 16.3179 7.25925L12.2586 10.2085C12.1296 10.3023 12.0756 10.4684 12.1249 10.62L13.6754 15.3921C13.7856 15.7312 13.3975 16.0131 13.109 15.8036L9.04967 12.8543C8.92067 12.7606 8.74599 12.7606 8.617 12.8543L4.55765 15.8036C4.2692 16.0131 3.88109 15.7312 3.99127 15.3921L5.5418 10.62C5.59108 10.4684 5.5371 10.3023 5.4081 10.2085L1.34876 7.25925C1.06031 7.04968 1.20855 6.59343 1.56509 6.59343H6.58272C6.74217 6.59343 6.88349 6.49076 6.93276 6.33911L8.48329 1.56706Z" fill="black"/>
<path d="M30.5663 1.56706C30.6765 1.22797 31.1562 1.22797 31.2664 1.56706L32.8169 6.33911C32.8662 6.49076 33.0075 6.59343 33.167 6.59343H38.1846C38.5411 6.59343 38.6894 7.04968 38.4009 7.25925L34.3416 10.2085C34.2126 10.3023 34.1586 10.4684 34.2079 10.62L35.7584 15.3921C35.8686 15.7312 35.4805 16.0131 35.192 15.8036L31.1327 12.8543C31.0037 12.7606 30.829 12.7606 30.7 12.8543L26.6407 15.8036C26.3522 16.0131 25.9641 15.7312 26.0743 15.3921L27.6248 10.62C27.6741 10.4684 27.6201 10.3023 27.4911 10.2085L23.4318 7.25925C23.1433 7.04968 23.2916 6.59343 23.6481 6.59343H28.6657C28.8252 6.59343 28.9665 6.49076 29.0158 6.33911L30.5663 1.56706Z" fill="black"/>
<path d="M52.6503 1.56706C52.7605 1.22797 53.2402 1.22797 53.3504 1.56706L54.9009 6.33911C54.9502 6.49076 55.0915 6.59343 55.2509 6.59343H60.2686C60.6251 6.59343 60.7734 7.04968 60.4849 7.25925L56.4256 10.2085C56.2966 10.3023 56.2426 10.4684 56.2919 10.62L57.8424 15.3921C57.9526 15.7312 57.5645 16.0131 57.276 15.8036L53.2167 12.8543C53.0877 12.7606 52.913 12.7606 52.784 12.8543L48.7246 15.8036C48.4362 16.0131 48.0481 15.7312 48.1583 15.3921L49.7088 10.62C49.7581 10.4684 49.7041 10.3023 49.5751 10.2085L45.5157 7.25925C45.2273 7.04968 45.3755 6.59343 45.7321 6.59343H50.7497C50.9092 6.59343 51.0505 6.49076 51.0998 6.33911L52.6503 1.56706Z" fill="black"/>
<path d="M74.7333 1.56706C74.8435 1.22797 75.3232 1.22797 75.4334 1.56706L76.9839 6.33911C77.0332 6.49076 77.1745 6.59343 77.3339 6.59343H82.3516C82.7081 6.59343 82.8564 7.04968 82.5679 7.25925L78.5086 10.2085C78.3796 10.3023 78.3256 10.4684 78.3749 10.62L79.9254 15.3921C80.0356 15.7312 79.6475 16.0131 79.359 15.8036L75.2997 12.8543C75.1707 12.7606 74.996 12.7606 74.867 12.8543L70.8077 15.8036C70.5192 16.0131 70.1311 15.7312 70.2413 15.3921L71.7918 10.62C71.8411 10.4684 71.7871 10.3023 71.6581 10.2085L67.5988 7.25925C67.3103 7.04968 67.4585 6.59343 67.8151 6.59343H72.8327C72.9922 6.59343 73.1335 6.49076 73.1828 6.33911L74.7333 1.56706Z" fill="black"/>
<path d="M96.8163 1.56706C96.9265 1.22797 97.4062 1.22797 97.5164 1.56706L99.0669 6.33911C99.1162 6.49076 99.2575 6.59343 99.417 6.59343H104.435C104.791 6.59343 104.939 7.04968 104.651 7.25925L100.592 10.2085C100.463 10.3023 100.409 10.4684 100.458 10.62L102.008 15.3921C102.119 15.7312 101.73 16.0131 101.442 15.8036L97.3827 12.8543C97.2537 12.7606 97.079 12.7606 96.95 12.8543L92.8907 15.8036C92.6022 16.0131 92.2141 15.7312 92.3243 15.3921L93.8748 10.62C93.9241 10.4684 93.8701 10.3023 93.7411 10.2085L89.6818 7.25925C89.3933 7.04968 89.5416 6.59343 89.8981 6.59343H94.9157C95.0752 6.59343 95.2165 6.49076 95.2658 6.33911L96.8163 1.56706Z" fill="black"/>
</svg>
