<svg width="32" height="31" viewBox="0 0 32 31" fill="none" xmlns="http://www.w3.org/2000/svg">
<path d="M16.2464 30.8308C24.7892 30.8308 31.6618 23.9581 31.6618 15.4154C31.6618 6.87264 24.7892 0 16.2464 0C7.7037 0 0.831055 6.87264 0.831055 15.4154C0.831055 23.9581 7.7037 30.8308 16.2464 30.8308Z" fill="#2775CA"/>
<path d="M20.4848 17.8564C20.4848 15.6084 19.136 14.8376 16.4383 14.5165C14.5113 14.2596 14.126 13.7458 14.126 12.8464C14.126 11.9471 14.7683 11.3692 16.0529 11.3692C17.209 11.3692 17.8514 11.7546 18.1725 12.718C18.2368 12.9107 18.4295 13.0391 18.6222 13.0391H19.6497C19.9067 13.0391 20.0994 12.8464 20.0994 12.5896V12.5253C19.8424 11.1122 18.6863 10.0203 17.209 9.89191V8.35037C17.209 8.0934 17.0163 7.90071 16.6952 7.83643H15.7318C15.4748 7.83643 15.2821 8.02912 15.2178 8.35037V9.82763C13.2909 10.0846 12.0706 11.3692 12.0706 12.975C12.0706 15.0946 13.3552 15.9295 16.0529 16.2508C17.8514 16.5719 18.4295 16.9572 18.4295 17.985C18.4295 19.0127 17.5301 19.7192 16.3099 19.7192C14.6398 19.7192 14.0617 19.0126 13.869 18.0491C13.8049 17.7923 13.6122 17.6637 13.4195 17.6637H12.3274C12.0706 17.6637 11.8779 17.8564 11.8779 18.1134V18.1777C12.1348 19.7833 13.1625 20.9395 15.2821 21.2608V22.8023C15.2821 23.0591 15.4748 23.2518 15.7959 23.3161H16.7594C17.0163 23.3161 17.209 23.1234 17.2733 22.8023V21.2608C19.2002 20.9395 20.4848 19.5907 20.4848 17.8564Z" fill="white"/>
<path fill-rule="evenodd" clipRule="evenodd" d="M7.25494 12.2679C5.39214 17.2138 7.96143 22.8019 12.9714 24.6002C13.1641 24.7288 13.3568 24.9856 13.3568 25.1783V26.0776C13.3568 26.206 13.3568 26.2703 13.2925 26.3345C13.2284 26.5914 12.9714 26.7198 12.7145 26.5914C9.11758 25.4353 6.35561 22.6733 5.19945 19.0764C3.27253 12.9746 6.61258 6.48714 12.7145 4.56022C12.7787 4.49609 12.9071 4.49609 12.9714 4.49609C13.2284 4.56022 13.3568 4.75291 13.3568 5.00989V5.90907C13.3568 6.23032 13.2284 6.42302 12.9714 6.55143C10.338 7.51489 8.2184 9.57022 7.25494 12.2679ZM19.2019 4.81724C19.266 4.56026 19.523 4.43185 19.7799 4.56026C23.3125 5.71642 26.1388 8.47839 27.2949 12.1395C29.2219 18.2414 25.8818 24.7288 19.7799 26.6558C19.7157 26.7199 19.5872 26.7199 19.523 26.7199C19.266 26.6558 19.1376 26.4631 19.1376 26.2061V25.3069C19.1376 24.9856 19.266 24.793 19.523 24.6645C22.1564 23.7011 24.276 21.6458 25.2395 18.9481C27.1023 14.0022 24.533 8.41411 19.523 6.61575C19.3303 6.48719 19.1376 6.23037 19.1376 5.97339V5.07421C19.1376 4.94565 19.1376 4.88152 19.2019 4.81724Z" fill="white"/>
</svg>
