<svg width="32" height="31" viewBox="0 0 32 31" fill="none" xmlns="http://www.w3.org/2000/svg">
<path d="M31.0272 19.1444C28.9684 27.4028 20.6041 32.4286 12.3448 30.3693C4.08891 28.3104 -0.936939 19.9456 1.1228 11.6879C3.18073 3.42868 11.5451 -1.59755 19.8018 0.461281C28.0605 2.52012 33.0861 10.8859 31.027 19.1446L31.0272 19.1444H31.0272Z" fill="#50AF95"/>
<path fill-rule="evenodd" clip-rule="evenodd" d="M18.0272 17.1628V17.1628C17.9182 17.171 17.3551 17.2046 16.0988 17.2046C15.0996 17.2046 14.3902 17.1746 14.1413 17.1628V17.1628C10.28 16.9929 7.39784 16.3207 7.39784 15.516C7.39784 14.7112 10.28 14.0399 14.1413 13.8673V16.4933C14.3939 16.5115 15.1169 16.5542 16.1161 16.5542C17.3151 16.5542 17.9155 16.5042 18.0236 16.4942V13.8691C21.8768 14.0408 24.7526 14.713 24.7526 15.516C24.7526 16.3189 21.8777 16.9911 18.0236 17.1619V17.1619L18.0272 17.1628ZM18.0276 13.5978V11.2479H23.4049V7.66455H8.76431V11.2479H14.1408V13.5969C9.77075 13.7977 6.48438 14.6633 6.48438 15.7006C6.48438 16.738 9.77075 17.6027 14.1408 17.8043V25.3345H18.0266V17.8016C22.3867 17.6009 25.6676 16.7361 25.6676 15.6997C25.6676 14.6633 22.3894 13.7986 18.0266 13.5969V13.5969L18.0276 13.5978Z" fill="white"/>
</svg>
