<svg width="745" height="310" viewBox="0 0 745 310" fill="none" xmlns="http://www.w3.org/2000/svg">
<path d="M-818.276 307.245H-32.2026C45.8545 307.245 110.764 273.756 142.125 217.303L172.36 162.878C201.547 110.341 259.936 77.4819 331.41 73.3727L486.045 64.4818C534.5 61.6959 568.661 31.4032 571.032 -10.8789C572.848 -43.3805 593.353 -69.9113 627.149 -79.6745C682.635 -95.701 724.805 -101.74 787.513 -104.642M-809.985 307.245H-23.9111C54.1459 307.245 119.055 273.756 150.417 217.303L180.651 162.878C209.838 110.341 268.23 77.4819 339.702 73.3727L494.337 64.4818C542.792 61.6959 576.952 31.4032 579.324 -10.8789C581.139 -43.3805 601.644 -69.9113 635.44 -79.6745C690.926 -95.701 733.096 -101.74 795.804 -104.642M-801.694 307.245H-15.6198C62.4373 307.245 127.347 273.756 158.708 217.303L188.943 162.878C218.129 110.341 276.521 77.4819 347.993 73.3727L502.628 64.4818C551.083 61.6959 585.244 31.4032 587.615 -10.8789C589.431 -43.3805 609.936 -69.9113 643.731 -79.6745C699.217 -95.701 741.388 -101.74 804.096 -104.642M-793.402 307.245H-7.32831C70.7288 307.245 135.638 273.756 167 217.303L197.234 162.878C226.421 110.341 284.812 77.4819 356.284 73.3727L510.919 64.4818C559.374 61.6959 593.535 31.4032 595.906 -10.8789C597.722 -43.3805 618.227 -69.9113 652.023 -79.6745C707.509 -95.701 749.679 -101.74 812.387 -104.642M-785.111 307.245H0.963135C79.0202 307.245 143.93 273.756 175.291 217.303L205.526 162.878C234.712 110.341 293.104 77.4819 364.576 73.3727L519.211 64.4818C567.666 61.6959 601.827 31.4032 604.198 -10.8789C606.014 -43.3805 626.518 -69.9113 660.314 -79.6745C715.8 -95.701 757.971 -101.74 820.679 -104.642M-776.819 307.245H9.25458C87.3117 307.245 152.221 273.756 183.582 217.303L213.817 162.878C243.004 110.341 301.395 77.4819 372.867 73.3727L527.502 64.4818C575.957 61.6959 610.118 31.4032 612.489 -10.8789C614.305 -43.3805 634.81 -69.9113 668.606 -79.6745C724.092 -95.701 766.262 -101.74 828.97 -104.642M-768.528 307.245H17.546C95.6031 307.245 160.512 273.756 191.874 217.303L222.109 162.878C251.295 110.341 309.687 77.4819 381.159 73.3727L535.794 64.4818C584.249 61.6959 618.409 31.4032 620.781 -10.8789C622.597 -43.3805 643.101 -69.9113 676.897 -79.6745C732.383 -95.701 774.553 -101.74 837.261 -104.642M-760.236 307.245H25.8374C103.894 307.245 168.804 273.756 200.165 217.303L230.4 162.878C259.587 110.341 317.978 77.4819 389.45 73.3727L544.085 64.4818C592.54 61.6959 626.701 31.4032 629.072 -10.8789C630.888 -43.3805 651.393 -69.9113 685.188 -79.6745C740.675 -95.701 782.845 -101.74 845.553 -104.642M-751.945 307.245H34.1288C112.186 307.245 177.095 273.756 208.457 217.303L238.691 162.878C267.881 110.341 326.269 77.4819 397.741 73.3727L552.377 64.4818C600.832 61.6959 634.992 31.4032 637.364 -10.8789C639.179 -43.3805 659.684 -69.9113 693.48 -79.6745C748.966 -95.701 791.136 -101.74 853.844 -104.642M-743.653 307.245H42.4203C120.477 307.245 185.387 273.756 216.748 217.303L246.983 162.878C276.173 110.341 334.561 77.4819 406.033 73.3727L560.668 64.4818C609.123 61.6959 643.284 31.4032 645.655 -10.8789C647.471 -43.3805 667.976 -69.9113 701.771 -79.6745C757.258 -95.701 799.428 -101.74 862.136 -104.642M-735.362 307.245H50.7117C128.769 307.245 193.678 273.756 225.04 217.303L255.274 162.878C284.464 110.341 342.852 77.4819 414.324 73.3727L568.959 64.4818C617.414 61.6959 651.575 31.4032 653.946 -10.8789C655.762 -43.3805 676.267 -69.9113 710.063 -79.6745C765.549 -95.701 807.719 -101.74 870.427 -104.642M-727.071 307.245H59.0032C137.06 307.245 201.97 273.756 233.331 217.303L263.57 162.878C292.756 110.341 351.144 77.4819 422.616 73.3727L577.251 64.4818C625.706 61.6959 659.867 31.4032 662.238 -10.8789C664.054 -43.3805 684.558 -69.9113 718.354 -79.6745C773.84 -95.701 816.011 -101.74 878.719 -104.642M-718.779 307.245H67.2946C145.352 307.245 210.261 273.756 241.622 217.303L271.861 162.878C301.047 110.341 359.435 77.4819 430.907 73.3727L585.542 64.4818C633.997 61.6959 668.158 31.4032 670.529 -10.8789C672.345 -43.3805 692.85 -69.9113 726.646 -79.6745C782.132 -95.701 824.302 -101.74 887.01 -104.642M-710.488 307.245H75.586C153.643 307.245 218.552 273.756 249.914 217.303L280.153 162.878C309.339 110.341 367.727 77.4819 439.199 73.3727L593.834 64.4818C642.289 61.6959 676.449 31.4032 678.821 -10.8789C680.636 -43.3805 701.141 -69.9113 734.937 -79.6745C790.423 -95.701 832.593 -101.74 895.301 -104.642M-702.196 307.245H83.8774C161.935 307.245 226.844 273.756 258.205 217.303L288.444 162.878C317.63 110.341 376.018 77.4819 447.49 73.3727L602.125 64.4818C650.58 61.6959 684.741 31.4032 687.112 -10.8789C688.928 -43.3805 709.433 -69.9113 743.229 -79.6745C798.715 -95.701 840.885 -101.74 903.593 -104.642M-693.905 307.245H92.1689C170.226 307.245 235.135 273.756 266.497 217.303L296.736 162.878C325.921 110.341 384.309 77.4819 455.781 73.3727L610.417 64.4818C658.872 61.6959 693.032 31.4032 695.404 -10.8789C697.219 -43.3805 717.724 -69.9113 751.52 -79.6745C807.006 -95.701 849.176 -101.74 911.884 -104.642M-685.613 307.245H100.46C178.517 307.245 243.427 273.756 274.788 217.303L305.027 162.878C334.213 110.341 392.601 77.4819 464.073 73.3727L618.708 64.4818C667.163 61.6959 701.324 31.4032 703.695 -10.8789C705.511 -43.3805 726.016 -69.9113 759.811 -79.6745C815.298 -95.701 857.468 -101.74 920.176 -104.642M-677.322 307.245H108.752C186.809 307.245 251.718 273.756 283.08 217.303L313.318 162.878C342.504 110.341 400.892 77.4819 472.364 73.3727L626.999 64.4818C675.454 61.6959 709.615 31.4032 711.986 -10.8789C713.802 -43.3805 734.307 -69.9113 768.103 -79.6745C823.589 -95.701 865.759 -101.74 928.467 -104.642M-669.031 307.245H117.043C195.1 307.245 260.01 273.756 291.371 217.303L321.61 162.878C350.796 110.341 409.184 77.4819 480.656 73.3727L635.291 64.4818C683.746 61.6959 717.906 31.4032 720.278 -10.8789C722.094 -43.3805 742.598 -69.9113 776.394 -79.6745C831.88 -95.701 874.051 -101.74 936.759 -104.642M-660.739 307.245H125.335C203.392 307.245 268.304 273.756 299.662 217.303L329.901 162.878C359.087 110.341 417.475 77.4819 488.947 73.3727L643.582 64.4818C692.037 61.6959 726.198 31.4032 728.569 -10.8789C730.385 -43.3805 750.89 -69.9113 784.686 -79.6745C840.172 -95.701 882.342 -101.74 945.05 -104.642M-652.448 307.245H133.626C211.683 307.245 276.596 273.756 307.954 217.303L338.193 162.878C367.379 110.341 425.767 77.4819 497.239 73.3727L651.874 64.4818C700.329 61.6959 734.489 31.4032 736.861 -10.8789C738.677 -43.3805 759.181 -69.9113 792.977 -79.6745C848.463 -95.701 890.633 -101.74 953.341 -104.642M-644.156 307.245H141.917C219.974 307.245 284.887 273.756 316.245 217.303L346.484 162.878C375.67 110.341 434.058 77.4819 505.53 73.3727L660.165 64.4818C708.62 61.6959 742.781 31.4032 745.152 -10.8789C746.968 -43.3805 767.473 -69.9113 801.269 -79.6745C856.755 -95.701 898.925 -101.74 961.633 -104.642M-635.865 307.245H150.209C228.265 307.245 293.179 273.756 324.537 217.303L354.776 162.878C383.961 110.341 442.35 77.4819 513.822 73.3727L668.456 64.4818C716.911 61.6959 751.072 31.4032 753.443 -10.8789C755.259 -43.3805 775.764 -69.9113 809.56 -79.6745C865.046 -95.701 907.216 -101.74 969.924 -104.642" stroke="#EEB91D" stroke-opacity="0.49" stroke-width="4.61261" stroke-linecap="round" stroke-dasharray="0.05 18.45"/>
</svg>
